<svg class="main-svg" xmlns="http://www.w3.org/2000/svg" xmlns:xlink="http://www.w3.org/1999/xlink" width="1200" height="800" style="" viewBox="0 0 1200 800"><rect x="0" y="0" width="1200" height="800" style="fill: rgb(255, 255, 255); fill-opacity: 1;"/><defs id="defs-bdd32c"><g class="clips"/><g class="gradients"/><g class="patterns"/></defs><g class="bglayer"/><g class="layer-below"><g class="imagelayer"/><g class="shapelayer"/></g><g class="cartesianlayer"/><g class="polarlayer"/><g class="smithlayer"/><g class="ternarylayer"/><g class="geolayer"/><g class="funnelarealayer"/><g class="pielayer"/><g class="iciclelayer"/><g class="treemaplayer"/><g class="sunburstlayer"/><g class="glimages"/><g class="sankey" transform="translate(80,100)matrix(1 0 0 1 0 0)" style="box-sizing: content-box; position: absolute; left: 0px; shape-rendering: geometricprecision; pointer-events: auto;"><g class="sankey-links" style="fill: none;"><path class="sankey-link" d="M114,281.53166079912194C520,281.53166079912194 520,54.28052943557066 926,54.28052943557066L926,80.24120429309707C520,80.24120429309707 520,307.4923356566484 114,307.4923356566484Z" style="stroke: rgb(68, 68, 68); stroke-opacity: 1; fill: rgb(234, 213, 94); fill-opacity: 0.5; stroke-width: 0; opacity: 1;"/><path class="sankey-link" d="M114,350.15160190019947C520,350.15160190019947 520,80.24120429309707 926,80.24120429309707L926,105.84018709089901C520,105.84018709089901 520,375.7505846980014 114,375.7505846980014Z" style="stroke: rgb(68, 68, 68); stroke-opacity: 1; fill: rgb(85, 245, 255); fill-opacity: 0.5; stroke-width: 0; opacity: 1;"/><path class="sankey-link" d="M114,49.48156055215376C520,49.48156055215376 520,293.3082521105894 926,293.3082521105894L926,317.55957943617767C520,317.55957943617767 520,73.73288787774197 114,73.73288787774197Z" style="stroke: rgb(68, 68, 68); stroke-opacity: 1; fill: rgb(255, 1, 1); fill-opacity: 0.5; stroke-width: 0; opacity: 1;"/><path class="sankey-link" d="M114,379.83796384086037C520,379.83796384086037 520,354.94027250136014 926,354.94027250136014L926,377.5038524343174C520,377.5038524343174 520,402.40154377381765 114,402.40154377381765Z" style="stroke: rgb(68, 68, 68); stroke-opacity: 1; fill: rgb(85, 245, 255); fill-opacity: 0.5; stroke-width: 0; opacity: 1;"/><path class="sankey-link" d="M114,436.1047313236968C520,436.1047313236968 520,105.84018709089901 926,105.84018709089901L926,124.98730299656427C520,124.98730299656427 520,455.25184722936206 114,455.25184722936206Z" style="stroke: rgb(68, 68, 68); stroke-opacity: 1; fill: rgb(89, 243, 209); fill-opacity: 0.5; stroke-width: 0; opacity: 1;"/><path class="sankey-link" d="M114,134.7931487013198C520,134.7931487013198 520,26.56793162026791 926,26.56793162026791L926,41.75361951414079C520,41.75361951414079 520,149.97883659519266 114,149.97883659519266Z" style="stroke: rgb(68, 68, 68); stroke-opacity: 1; fill: rgb(255, 1, 1); fill-opacity: 0.5; stroke-width: 0; opacity: 1;"/><path class="sankey-link" d="M114,313.18270364993407C520,313.18270364993407 520,340.9987431049805 926,340.9987431049805L926,354.9402725013602C520,354.9402725013602 520,327.12423304631375 114,327.12423304631375Z" style="stroke: rgb(68, 68, 68); stroke-opacity: 1; fill: rgb(234, 213, 94); fill-opacity: 0.5; stroke-width: 0; opacity: 1;"/><path class="sankey-link" d="M114,517.512915811144C520,517.512915811144 520,387.8246539423562 926,387.8246539423562L926,401.5626814292744C520,401.5626814292744 520,531.2509432980623 114,531.2509432980623Z" style="stroke: rgb(68, 68, 68); stroke-opacity: 1; fill: rgb(237, 1, 206); fill-opacity: 0.5; stroke-width: 0; opacity: 1;"/><path class="sankey-link" d="M114,106.55348477888145C520,106.55348477888145 520,13.240117890375162 926,13.240117890375162L926,26.567931620267913C520,26.567931620267913 520,119.8812985087742 114,119.8812985087742Z" style="stroke: rgb(68, 68, 68); stroke-opacity: 1; fill: rgb(203, 205, 1); fill-opacity: 0.5; stroke-width: 0; opacity: 1;"/><path class="sankey-link" d="M114,29.946515221118545C520,29.946515221118545 520,0 926,0L926,13.24011789037516C520,13.24011789037516 520,43.186633111493705 114,43.186633111493705Z" style="stroke: rgb(68, 68, 68); stroke-opacity: 1; fill: rgb(255, 1, 1); fill-opacity: 0.5; stroke-width: 0; opacity: 1;"/><path class="sankey-link" d="M114,503.2311619331268C520,503.2311619331268 520,124.98730299656427 926,124.98730299656427L926,137.7623214551819C520,137.7623214551819 520,516.0061803917445 114,516.0061803917445Z" style="stroke: rgb(68, 68, 68); stroke-opacity: 1; fill: rgb(237, 0, 206); fill-opacity: 0.1; stroke-width: 0; opacity: 1;"/><path class="sankey-link" d="M114,589.4865120717941C520,589.4865120717941 520,143.7302006162591 926,143.7302006162591L926,155.34743330903197C520,155.34743330903197 520,601.103744764567 114,601.103744764567Z" style="stroke: rgb(68, 68, 68); stroke-opacity: 1; fill: rgb(178, 231, 0); fill-opacity: 0.1; stroke-width: 0; opacity: 1;"/><path class="sankey-link" d="M114,192.9786096350103C520,192.9786096350103 520,327.03172994604745 926,327.03172994604745L926,337.3563919168811C520,337.3563919168811 520,203.30327160584392 114,203.30327160584392Z" style="stroke: rgb(68, 68, 68); stroke-opacity: 1; fill: rgb(255, 0, 201); fill-opacity: 0.1; stroke-width: 0; opacity: 1;"/><path class="sankey-link" d="M114,463.7653028569449C520,463.7653028569449 520,377.5038524343174 926,377.5038524343174L926,387.8246539423561C520,387.8246539423561 520,474.0861043649836 114,474.0861043649836Z" style="stroke: rgb(68, 68, 68); stroke-opacity: 1; fill: rgb(89, 243, 209); fill-opacity: 0.1; stroke-width: 0; opacity: 1;"/><path class="sankey-link" d="M114,83.80272657798727C520,83.80272657798727 520,563.3328788528164 926,563.3328788528164L926,573.5836370537105C520,573.5836370537105 520,94.05348477888137 114,94.05348477888137Z" style="stroke: rgb(68, 68, 68); stroke-opacity: 1; fill: rgb(255, 0, 0); fill-opacity: 0.1; stroke-width: 0; opacity: 1;"/><path class="sankey-link" d="M114,413.87335145829684C520,413.87335145829684 520,584.7718772156221 926,584.7718772156221L926,594.5032570810221C520,594.5032570810221 520,423.6047313236968 114,423.6047313236968Z" style="stroke: rgb(68, 68, 68); stroke-opacity: 1; fill: rgb(85, 245, 255); fill-opacity: 0.1; stroke-width: 0; opacity: 1;"/><path class="sankey-link" d="M114,151.40773899574532C520,151.40773899574532 520,317.91954094155744 926,317.91954094155744L926,327.03172994604745C520,327.03172994604745 520,160.51992800023532 114,160.51992800023532Z" style="stroke: rgb(68, 68, 68); stroke-opacity: 1; fill: rgb(255, 0, 0); fill-opacity: 0.1; stroke-width: 0; opacity: 1;"/><path class="sankey-link" d="M114,611.681314816653C520,611.681314816653 520,406.27866866436125 926,406.27866866436125L926,415.36942016033004C520,415.36942016033004 520,620.7720663126217 114,620.7720663126217Z" style="stroke: rgb(68, 68, 68); stroke-opacity: 1; fill: rgb(178, 231, 0); fill-opacity: 0.1; stroke-width: 0; opacity: 1;"/><path class="sankey-link" d="M114,181.31774272261453C520,181.31774272261453 520,41.75361951414079 926,41.75361951414079L926,50.243499881926745C520,50.243499881926745 520,189.80762309040045 114,189.80762309040045Z" style="stroke: rgb(68, 68, 68); stroke-opacity: 1; fill: rgb(255, 0, 201); fill-opacity: 0.1; stroke-width: 0; opacity: 1;"/><path class="sankey-link" d="M114,477.05710284266587C520,477.05710284266587 520,482.465395753977 926,482.465395753977L926,490.0657521077731C520,490.0657521077731 520,484.65745919646196 114,484.65745919646196Z" style="stroke: rgb(68, 68, 68); stroke-opacity: 1; fill: rgb(89, 243, 209); fill-opacity: 0.1; stroke-width: 0; opacity: 1;"/><path class="sankey-link" d="M114,327.1242330463137C520,327.1242330463137 520,440.2757292371736 926,440.2757292371736L926,447.6184500585878C520,447.6184500585878 520,334.4669538677279 114,334.4669538677279Z" style="stroke: rgb(68, 68, 68); stroke-opacity: 1; fill: rgb(234, 213, 94); fill-opacity: 0.1; stroke-width: 0; opacity: 1;"/><path class="sankey-link" d="M114,402.40154377381765C520,402.40154377381765 520,447.61845005858777 926,447.61845005858777L926,454.9488467407667C520,454.9488467407667 520,409.7319404559966 114,409.7319404559966Z" style="stroke: rgb(68, 68, 68); stroke-opacity: 1; fill: rgb(85, 245, 255); fill-opacity: 0.1; stroke-width: 0; opacity: 1;"/><path class="sankey-link" d="M114,243.5623681073797C520,243.5623681073797 520,200.77076902170396 926,200.77076902170396L926,207.4741037592228C520,207.4741037592228 520,250.26570284489856 114,250.26570284489856Z" style="stroke: rgb(68, 68, 68); stroke-opacity: 1; fill: rgb(166, 216, 255); fill-opacity: 0.1; stroke-width: 0; opacity: 1;"/><path class="sankey-link" d="M114,484.65745919646196C520,484.65745919646196 520,613.9262972633354 926,613.9262972633354L926,620.0000000000006C520,620.0000000000006 520,490.731161933127 114,490.731161933127Z" style="stroke: rgb(68, 68, 68); stroke-opacity: 1; fill: rgb(89, 243, 209); fill-opacity: 0.1; stroke-width: 0; opacity: 1;"/><path class="sankey-link" d="M114,455.25184722936206C520,455.25184722936206 520,174.0487686766482 926,174.0487686766482L926,179.95105871948516C520,179.95105871948516 520,461.154137272199 114,461.154137272199Z" style="stroke: rgb(68, 68, 68); stroke-opacity: 1; fill: rgb(89, 243, 209); fill-opacity: 0.1; stroke-width: 0; opacity: 1;"/><path class="sankey-link" d="M114,642.3847427316192C520,642.3847427316192 520,415.36942016033004 926,415.36942016033004L926,421.0820212032871C520,421.0820212032871 520,648.0973437745762 114,648.0973437745762Z" style="stroke: rgb(68, 68, 68); stroke-opacity: 1; fill: rgb(164, 215, 0); fill-opacity: 0.1; stroke-width: 0; opacity: 1;"/><path class="sankey-link" d="M114,163.53419562304933C520,163.53419562304933 520,575.6355257408763 926,575.6355257408763L926,580.9190728404415C520,580.9190728404415 520,168.81774272261444 114,168.81774272261444Z" style="stroke: rgb(68, 68, 68); stroke-opacity: 1; fill: rgb(255, 0, 0); fill-opacity: 0.1; stroke-width: 0; opacity: 1;"/><path class="sankey-link" d="M114,79.28898722351944C520,79.28898722351944 520,502.5657521077731 926,502.5657521077731L926,507.0794914622409C520,507.0794914622409 520,83.80272657798726 114,83.80272657798726Z" style="stroke: rgb(68, 68, 68); stroke-opacity: 1; fill: rgb(255, 0, 0); fill-opacity: 0.1; stroke-width: 0; opacity: 1;"/><path class="sankey-link" d="M114,308.68982622405946C520,308.68982622405946 520,260.39304095040757 926,260.39304095040757L926,264.88591837628223C520,264.88591837628223 520,313.1827036499341 114,313.1827036499341Z" style="stroke: rgb(68, 68, 68); stroke-opacity: 1; fill: rgb(234, 213, 94); fill-opacity: 0.1; stroke-width: 0; opacity: 1;"/><path class="sankey-link" d="M114,260.87100506443755C520,260.87100506443755 520,510.09375908505496 926,510.09375908505496L926,514.4016104445587C520,514.4016104445587 520,265.1788564239414 114,265.1788564239414Z" style="stroke: rgb(68, 68, 68); stroke-opacity: 1; fill: rgb(166, 216, 255); fill-opacity: 0.1; stroke-width: 0; opacity: 1;"/><path class="sankey-link" d="M114,43.186633111493705C520,43.186633111493705 520,192.45105871948522 926,192.45105871948522L926,196.74829047035394C520,196.74829047035394 520,47.483864862362424 114,47.483864862362424Z" style="stroke: rgb(68, 68, 68); stroke-opacity: 1; fill: rgb(255, 0, 0); fill-opacity: 0.1; stroke-width: 0; opacity: 1;"/><path class="sankey-link" d="M114,601.103744764567C520,601.103744764567 520,219.87181528134846 926,219.87181528134846L926,224.0892547827134C520,224.0892547827134 520,605.3211842659318 114,605.3211842659318Z" style="stroke: rgb(68, 68, 68); stroke-opacity: 1; fill: rgb(178, 231, 0); fill-opacity: 0.1; stroke-width: 0; opacity: 1;"/><path class="sankey-link" d="M114,409.7319404559966C520,409.7319404559966 520,514.4016104445587 926,514.4016104445587L926,518.5430214468589C520,518.5430214468589 520,413.8733514582968 114,413.8733514582968Z" style="stroke: rgb(68, 68, 68); stroke-opacity: 1; fill: rgb(85, 245, 255); fill-opacity: 0.1; stroke-width: 0; opacity: 1;"/><path class="sankey-link" d="M114,375.7505846980014C520,375.7505846980014 520,208.03286104197963 926,208.03286104197963L926,212.12024018483862C520,212.12024018483862 520,379.8379638408604 114,379.8379638408604Z" style="stroke: rgb(68, 68, 68); stroke-opacity: 1; fill: rgb(85, 245, 255); fill-opacity: 0.1; stroke-width: 0; opacity: 1;"/><path class="sankey-link" d="M114,236.5068007393396C520,236.5068007393396 520,50.243499881926745 926,50.243499881926745L926,54.280529435570664C520,54.280529435570664 520,240.54383029298356 114,240.54383029298356Z" style="stroke: rgb(68, 68, 68); stroke-opacity: 1; fill: rgb(166, 216, 255); fill-opacity: 0.1; stroke-width: 0; opacity: 1;"/><path class="sankey-link" d="M114,648.0973437745763C520,648.0973437745763 520,534.414326480412 926,534.414326480412L926,538.3099341024936C520,538.3099341024936 520,651.9929513966579 114,651.9929513966579Z" style="stroke: rgb(68, 68, 68); stroke-opacity: 1; fill: rgb(164, 215, 0); fill-opacity: 0.1; stroke-width: 0; opacity: 1;"/><path class="sankey-link" d="M114,265.17885642394134C520,265.17885642394134 520,580.9190728404415 926,580.9190728404415L926,584.771877215622C520,584.771877215622 520,269.031660799122 114,269.031660799122Z" style="stroke: rgb(68, 68, 68); stroke-opacity: 1; fill: rgb(166, 216, 255); fill-opacity: 0.1; stroke-width: 0; opacity: 1;"/><path class="sankey-link" d="M114,253.90805403299802C520,253.90805403299802 520,436.59242299135866 926,436.59242299135866L926,440.2757292371736C520,440.2757292371736 520,257.591360278813 114,257.591360278813Z" style="stroke: rgb(68, 68, 68); stroke-opacity: 1; fill: rgb(166, 216, 255); fill-opacity: 0.1; stroke-width: 0; opacity: 1;"/><path class="sankey-link" d="M114,250.26570284489858C520,250.26570284489858 520,337.3563919168811 926,337.3563919168811L926,340.99874310498046C520,340.99874310498046 520,253.90805403299802 114,253.90805403299802Z" style="stroke: rgb(68, 68, 68); stroke-opacity: 1; fill: rgb(166, 216, 255); fill-opacity: 0.1; stroke-width: 0; opacity: 1;"/><path class="sankey-link" d="M114,567.316147859992C520,567.316147859992 520,216.23814118898403 926,216.23814118898403L926,219.8718152813485C520,219.8718152813485 520,570.9498219523564 114,570.9498219523564Z" style="stroke: rgb(68, 68, 68); stroke-opacity: 1; fill: rgb(100, 202, 204); fill-opacity: 0.1; stroke-width: 0; opacity: 1;"/><path class="sankey-link" d="M114,651.9929513966578C520,651.9929513966578 520,597.8627804561763 926,597.8627804561763L926,601.4262972633355C520,601.4262972633355 520,655.556468203817 114,655.556468203817Z" style="stroke: rgb(68, 68, 68); stroke-opacity: 1; fill: rgb(164, 215, 0); fill-opacity: 0.1; stroke-width: 0; opacity: 1;"/><path class="sankey-link" d="M114,608.2589810823458C520,608.2589810823458 520,277.38591837628223 926,277.38591837628223L926,280.80825211058936C520,280.80825211058936 520,611.681314816653 114,611.681314816653Z" style="stroke: rgb(68, 68, 68); stroke-opacity: 1; fill: rgb(178, 231, 0); fill-opacity: 0.1; stroke-width: 0; opacity: 1;"/><path class="sankey-link" d="M114,620.7720663126217C520,620.7720663126217 520,531.0430214468593 926,531.0430214468593L926,534.414326480412C520,534.414326480412 520,624.1433713461745 114,624.1433713461745Z" style="stroke: rgb(68, 68, 68); stroke-opacity: 1; fill: rgb(178, 231, 0); fill-opacity: 0.1; stroke-width: 0; opacity: 1;"/><path class="sankey-link" d="M114,573.6269886966397C520,573.6269886966397 520,594.5032570810221 926,594.5032570810221L926,597.8627804561764C520,597.8627804561764 520,576.9865120717941 114,576.9865120717941Z" style="stroke: rgb(68, 68, 68); stroke-opacity: 1; fill: rgb(100, 202, 204); fill-opacity: 0.1; stroke-width: 0; opacity: 1;"/><path class="sankey-link" d="M114,257.591360278813C520,257.591360278813 520,476.02404768620397 926,476.02404768620397L926,479.3036924718285C520,479.3036924718285 520,260.87100506443755 114,260.87100506443755Z" style="stroke: rgb(68, 68, 68); stroke-opacity: 1; fill: rgb(166, 216, 255); fill-opacity: 0.1; stroke-width: 0; opacity: 1;"/><path class="sankey-link" d="M114,564.1007820590494C520,564.1007820590494 520,140.5148348153164 926,140.5148348153164L926,143.7302006162591C520,143.7302006162591 520,567.316147859992 114,567.316147859992Z" style="stroke: rgb(68, 68, 68); stroke-opacity: 1; fill: rgb(100, 202, 204); fill-opacity: 0.1; stroke-width: 0; opacity: 1;"/><path class="sankey-link" d="M114,639.18743561474C520,639.18743561474 520,224.08925478271343 926,224.08925478271343L926,227.28656189959256C520,227.28656189959256 520,642.3847427316191 114,642.3847427316191Z" style="stroke: rgb(68, 68, 68); stroke-opacity: 1; fill: rgb(164, 215, 0); fill-opacity: 0.1; stroke-width: 0; opacity: 1;"/><path class="sankey-link" d="M114,189.80762309040048C520,189.80762309040048 520,257.2220544057978 926,257.2220544057978L926,260.3930409504076C520,260.3930409504076 520,192.97860963501026 114,192.97860963501026Z" style="stroke: rgb(68, 68, 68); stroke-opacity: 1; fill: rgb(255, 0, 201); fill-opacity: 0.1; stroke-width: 0; opacity: 1;"/><path class="sankey-link" d="M114,334.46695386772785C520,334.46695386772785 520,479.3036924718285 926,479.3036924718285L926,482.46539575397696C520,482.46539575397696 520,337.6286571498763 114,337.6286571498763Z" style="stroke: rgb(68, 68, 68); stroke-opacity: 1; fill: rgb(234, 213, 94); fill-opacity: 0.1; stroke-width: 0; opacity: 1;"/><path class="sankey-link" d="M114,531.2509432980622C520,531.2509432980622 520,457.9198452184489 926,457.9198452184489L926,460.97835012849794C520,460.97835012849794 520,534.3094482081113 114,534.3094482081113Z" style="stroke: rgb(68, 68, 68); stroke-opacity: 1; fill: rgb(237, 0, 206); fill-opacity: 0.1; stroke-width: 0; opacity: 1;"/><path class="sankey-link" d="M114,240.54383029298353C520,240.54383029298353 520,170.39149757759765 926,170.39149757759765L926,173.41003539199386C520,173.41003539199386 520,243.56236810737974 114,243.56236810737974Z" style="stroke: rgb(68, 68, 68); stroke-opacity: 1; fill: rgb(166, 216, 255); fill-opacity: 0.1; stroke-width: 0; opacity: 1;"/><path class="sankey-link" d="M114,160.51992800023532C520,160.51992800023532 520,507.0794914622409 926,507.0794914622409L926,510.09375908505496C520,510.09375908505496 520,163.53419562304936 114,163.53419562304936Z" style="stroke: rgb(68, 68, 68); stroke-opacity: 1; fill: rgb(255, 0, 0); fill-opacity: 0.1; stroke-width: 0; opacity: 1;"/><path class="sankey-link" d="M114,73.73288787774197C520,73.73288787774197 520,433.5820212032873 926,433.5820212032873L926,436.59242299135866C520,436.59242299135866 520,76.74328966581336 114,76.74328966581336Z" style="stroke: rgb(68, 68, 68); stroke-opacity: 1; fill: rgb(255, 0, 0); fill-opacity: 0.1; stroke-width: 0; opacity: 1;"/><path class="sankey-link" d="M114,474.08610436498367C520,474.08610436498367 520,454.9488467407667 926,454.9488467407667L926,457.9198452184489C520,457.9198452184489 520,477.05710284266587 114,477.05710284266587Z" style="stroke: rgb(68, 68, 68); stroke-opacity: 1; fill: rgb(89, 243, 209); fill-opacity: 0.1; stroke-width: 0; opacity: 1;"/><path class="sankey-link" d="M114,605.321184265932C520,605.321184265932 520,239.78656189959258 926,239.78656189959258L926,242.72435871600652C520,242.72435871600652 520,608.2589810823459 114,608.2589810823459Z" style="stroke: rgb(68, 68, 68); stroke-opacity: 1; fill: rgb(178, 231, 0); fill-opacity: 0.1; stroke-width: 0; opacity: 1;"/><path class="sankey-link" d="M114,546.8094482081112C520,546.8094482081112 520,137.7623214551819 926,137.7623214551819L926,140.51483481531636C520,140.51483481531636 520,549.5619615682458 114,549.5619615682458Z" style="stroke: rgb(68, 68, 68); stroke-opacity: 1; fill: rgb(133, 228, 0); fill-opacity: 0.1; stroke-width: 0; opacity: 1;"/><path class="sankey-link" d="M114,570.9498219523565C520,570.9498219523565 520,403.601501920078 926,403.601501920078L926,406.27866866436125C520,406.27866866436125 520,573.6269886966396 114,573.6269886966396Z" style="stroke: rgb(68, 68, 68); stroke-opacity: 1; fill: rgb(100, 202, 204); fill-opacity: 0.1; stroke-width: 0; opacity: 1;"/><path class="sankey-link" d="M114,461.154137272199C520,461.154137272199 520,212.12024018483865 926,212.12024018483865L926,214.73140576958454C520,214.73140576958454 520,463.7653028569449 114,463.7653028569449Z" style="stroke: rgb(68, 68, 68); stroke-opacity: 1; fill: rgb(89, 243, 209); fill-opacity: 0.1; stroke-width: 0; opacity: 1;"/><path class="sankey-link" d="M114,215.8032716058438C520,215.8032716058438 520,198.17719287090657 926,198.17719287090657L926,200.77076902170396C520,200.77076902170396 520,218.3968477566412 114,218.3968477566412Z" style="stroke: rgb(68, 68, 68); stroke-opacity: 1; fill: rgb(255, 0, 246); fill-opacity: 0.1; stroke-width: 0; opacity: 1;"/><path class="sankey-link" d="M114,76.74328966581335C520,76.74328966581335 520,473.4783501284979 926,473.4783501284979L926,476.024047686204C520,476.024047686204 520,79.28898722351944 114,79.28898722351944Z" style="stroke: rgb(68, 68, 68); stroke-opacity: 1; fill: rgb(255, 0, 0); fill-opacity: 0.1; stroke-width: 0; opacity: 1;"/><path class="sankey-link" d="M114,636.6433713461745C520,636.6433713461745 520,155.34743330903197 926,155.34743330903197L926,157.8914975775975C520,157.8914975775975 520,639.18743561474 114,639.18743561474Z" style="stroke: rgb(68, 68, 68); stroke-opacity: 1; fill: rgb(164, 215, 0); fill-opacity: 0.1; stroke-width: 0; opacity: 1;"/><path class="sankey-link" d="M114,120.24126001415404C520,120.24126001415404 520,573.5836370537105 926,573.5836370537105L926,575.6355257408762C520,575.6355257408762 520,122.29314870131982 114,122.29314870131982Z" style="stroke: rgb(68, 68, 68); stroke-opacity: 1; fill: rgb(203, 205, 0); fill-opacity: 0.1; stroke-width: 0; opacity: 1;"/><path class="sankey-link" d="M114,549.5619615682457C520,549.5619615682457 520,401.5626814292744 926,401.5626814292744L926,403.6015019200781C520,403.6015019200781 520,551.6007820590493 114,551.6007820590493Z" style="stroke: rgb(68, 68, 68); stroke-opacity: 1; fill: rgb(133, 228, 0); fill-opacity: 0.1; stroke-width: 0; opacity: 1;"/><path class="sankey-link" d="M114,47.483864862362424C520,47.483864862362424 520,255.2243587160065 926,255.2243587160065L926,257.22205440579785C520,257.22205440579785 520,49.481560552153766 114,49.481560552153766Z" style="stroke: rgb(68, 68, 68); stroke-opacity: 1; fill: rgb(255, 0, 0); fill-opacity: 0.1; stroke-width: 0; opacity: 1;"/><path class="sankey-link" d="M114,516.0061803917445C520,516.0061803917445 520,214.73140576958454 926,214.73140576958454L926,216.23814118898403C520,216.23814118898403 520,517.512915811144 114,517.512915811144Z" style="stroke: rgb(68, 68, 68); stroke-opacity: 1; fill: rgb(237, 0, 206); fill-opacity: 0.1; stroke-width: 0; opacity: 1;"/><path class="sankey-link" d="M114,149.9788365951927C520,149.9788365951927 520,196.74829047035394 926,196.74829047035394L926,198.17719287090654C520,198.17719287090654 520,151.4077389957453 114,151.4077389957453Z" style="stroke: rgb(68, 68, 68); stroke-opacity: 1; fill: rgb(255, 0, 0); fill-opacity: 0.1; stroke-width: 0; opacity: 1;"/><path class="sankey-link" d="M114,307.4923356566483C520,307.4923356566483 520,173.41003539199383 926,173.41003539199383L926,174.04876867664817C520,174.04876867664817 520,308.13106894130266 114,308.13106894130266Z" style="stroke: rgb(234, 213, 94); stroke-opacity: 0.1; fill: rgb(234, 213, 94); fill-opacity: 0.1; stroke-width: 1; opacity: 1;"/><path class="sankey-link" d="M114,308.13106894130266C520,308.13106894130266 520,207.47410375922283 926,207.47410375922283L926,208.03286104197963C520,208.03286104197963 520,308.68982622405946 114,308.68982622405946Z" style="stroke: rgb(234, 213, 94); stroke-opacity: 0.1; fill: rgb(234, 213, 94); fill-opacity: 0.1; stroke-width: 1; opacity: 1;"/><path class="sankey-link" d="M114,119.88129850877421C520,119.88129850877421 520,317.5595794361776 926,317.5595794361776L926,317.91954094155744C520,317.91954094155744 520,120.24126001415404 114,120.24126001415404Z" style="stroke: rgb(203, 205, 0); stroke-opacity: 0.1; fill: rgb(203, 205, 0); fill-opacity: 0.1; stroke-width: 1; opacity: 1;"/><path class="sankey-link" d="M114,337.62865714987635C520,337.62865714987635 520,550.8099341024935 926,550.8099341024935L926,550.8328788528164C520,550.8328788528164 520,337.6516019001993 114,337.6516019001993Z" style="stroke: rgb(234, 213, 94); stroke-opacity: 0.1; fill: rgb(234, 213, 94); fill-opacity: 0.1; stroke-width: 1; opacity: 1;"/></g><g class="sankey-node-set" style="cursor: move;"><g class="sankey-node" transform="translate(94.000,29.947)" style="opacity: 1;"><rect class="node-rect" width="20" height="64.10696955776291" style="stroke-width: 0.5; stroke: rgb(68, 68, 68); stroke-opacity: 1; fill: rgb(255, 176, 155); fill-opacity: 1;"/><text class="node-label" data-notex="1" x="0" y="0" text-anchor="start" transform="translate(23.25,39.053484778881455)" style="cursor: default; font-family: Arial; font-size: 20px; fill: rgb(42, 63, 95); fill-opacity: 1; white-space: pre; text-shadow: white 1px 1px 1px, white -1px -1px 1px, white 1px -1px 1px, white -1px 1px 1px;">S 001-139</text></g><g class="sankey-node" transform="translate(94.000,106.553)" style="opacity: 1;"><rect class="node-rect" width="20" height="15.739663922438353" style="stroke-width: 0.5; stroke: rgb(68, 68, 68); stroke-opacity: 1; fill: rgb(203, 205, 132); fill-opacity: 1;"/><text class="node-label" data-notex="1" x="0" y="0" text-anchor="start" transform="translate(23.25,14.869831961219177)" style="cursor: default; font-family: Arial; font-size: 20px; fill: rgb(42, 63, 95); fill-opacity: 1; white-space: pre; text-shadow: white 1px 1px 1px, white -1px -1px 1px, white 1px -1px 1px, white -1px 1px 1px;">S 140-239</text></g><g class="sankey-node" transform="translate(94.000,134.793)" style="opacity: 1;"><rect class="node-rect" width="20" height="34.02459402129472" style="stroke-width: 0.5; stroke: rgb(68, 68, 68); stroke-opacity: 1; fill: rgb(255, 191, 116); fill-opacity: 1;"/><text class="node-label" data-notex="1" x="0" y="0" text-anchor="start" transform="translate(23.25,24.01229701064736)" style="cursor: default; font-family: Arial; font-size: 20px; fill: rgb(42, 63, 95); fill-opacity: 1; white-space: pre; text-shadow: white 1px 1px 1px, white -1px -1px 1px, white 1px -1px 1px, white -1px 1px 1px;">S 240-279</text></g><g class="sankey-node" transform="translate(94.000,181.318)" style="opacity: 1;"><rect class="node-rect" width="20" height="21.98552888322928" style="stroke-width: 0.5; stroke: rgb(68, 68, 68); stroke-opacity: 1; fill: rgb(255, 173, 201); fill-opacity: 1;"/><text class="node-label" data-notex="1" x="0" y="0" text-anchor="start" transform="translate(23.25,17.99276444161464)" style="cursor: default; font-family: Arial; font-size: 20px; fill: rgb(42, 63, 95); fill-opacity: 1; white-space: pre; text-shadow: white 1px 1px 1px, white -1px -1px 1px, white 1px -1px 1px, white -1px 1px 1px;">S 280-289</text></g><g class="sankey-node" transform="translate(94.000,215.803)" style="opacity: 1;"><rect class="node-rect" width="20" height="2.5935761507973893" style="stroke-width: 0.5; stroke: rgb(68, 68, 68); stroke-opacity: 1; fill: rgb(255, 186, 246); fill-opacity: 1;"/><text class="node-label" data-notex="1" x="0" y="0" text-anchor="start" transform="translate(23.25,8.296788075398695)" style="cursor: default; font-family: Arial; font-size: 20px; fill: rgb(42, 63, 95); fill-opacity: 1; white-space: pre; text-shadow: white 1px 1px 1px, white -1px -1px 1px, white 1px -1px 1px, white -1px 1px 1px;">S 290-319</text></g><g class="sankey-node" transform="translate(94.000,236.507)" style="opacity: 1;"><rect class="node-rect" width="20" height="32.52486005978233" style="stroke-width: 0.5; stroke: rgb(68, 68, 68); stroke-opacity: 1; fill: rgb(166, 216, 255); fill-opacity: 1;"/><text class="node-label" data-notex="1" x="0" y="0" text-anchor="start" transform="translate(23.25,23.262430029891163)" style="cursor: default; font-family: Arial; font-size: 20px; fill: rgb(42, 63, 95); fill-opacity: 1; white-space: pre; text-shadow: white 1px 1px 1px, white -1px -1px 1px, white 1px -1px 1px, white -1px 1px 1px;">S 320-389</text></g><g class="sankey-node" transform="translate(94.000,281.532)" style="opacity: 1;"><rect class="node-rect" width="20" height="56.11994110107753" style="stroke-width: 0.5; stroke: rgb(68, 68, 68); stroke-opacity: 1; fill: rgb(234, 213, 94); fill-opacity: 1;"/><text class="node-label" data-notex="1" x="0" y="0" text-anchor="start" transform="translate(23.25,35.059970550538765)" style="cursor: default; font-family: Arial; font-size: 20px; fill: rgb(42, 63, 95); fill-opacity: 1; white-space: pre; text-shadow: white 1px 1px 1px, white -1px -1px 1px, white 1px -1px 1px, white -1px 1px 1px;">S 390-459</text></g><g class="sankey-node" transform="translate(94.000,350.152)" style="opacity: 1;"><rect class="node-rect" width="20" height="73.45312942349733" style="stroke-width: 0.5; stroke: rgb(68, 68, 68); stroke-opacity: 1; fill: rgb(85, 245, 255); fill-opacity: 1;"/><text class="node-label" data-notex="1" x="0" y="0" text-anchor="start" transform="translate(23.25,43.726564711748665)" style="cursor: default; font-family: Arial; font-size: 20px; fill: rgb(42, 63, 95); fill-opacity: 1; white-space: pre; text-shadow: white 1px 1px 1px, white -1px -1px 1px, white 1px -1px 1px, white -1px 1px 1px;">S 460-519</text></g><g class="sankey-node" transform="translate(94.000,436.105)" style="opacity: 1;"><rect class="node-rect" width="20" height="54.62643060943003" style="stroke-width: 0.5; stroke: rgb(68, 68, 68); stroke-opacity: 1; fill: rgb(89, 243, 209); fill-opacity: 1;"/><text class="node-label" data-notex="1" x="0" y="0" text-anchor="start" transform="translate(23.25,34.313215304715015)" style="cursor: default; font-family: Arial; font-size: 20px; fill: rgb(42, 63, 95); fill-opacity: 1; white-space: pre; text-shadow: white 1px 1px 1px, white -1px -1px 1px, white 1px -1px 1px, white -1px 1px 1px;">S 520-579</text></g><g class="sankey-node" transform="translate(94.000,503.231)" style="opacity: 1;"><rect class="node-rect" width="20" height="31.078286274984407" style="stroke-width: 0.5; stroke: rgb(68, 68, 68); stroke-opacity: 1; fill: rgb(237, 187, 206); fill-opacity: 1;"/><text class="node-label" data-notex="1" x="0" y="0" text-anchor="start" transform="translate(23.25,22.539143137492204)" style="cursor: default; font-family: Arial; font-size: 20px; fill: rgb(42, 63, 95); fill-opacity: 1; white-space: pre; text-shadow: white 1px 1px 1px, white -1px -1px 1px, white 1px -1px 1px, white -1px 1px 1px;">S 580-629</text></g><g class="sankey-node" transform="translate(94.000,546.809)" style="opacity: 1;"><rect class="node-rect" width="20" height="4.791333850938145" style="stroke-width: 0.5; stroke: rgb(68, 68, 68); stroke-opacity: 1; fill: rgb(133, 228, 159); fill-opacity: 1;"/><text class="node-label" data-notex="1" x="0" y="0" text-anchor="start" transform="translate(23.25,9.395666925469072)" style="cursor: default; font-family: Arial; font-size: 20px; fill: rgb(42, 63, 95); fill-opacity: 1; white-space: pre; text-shadow: white 1px 1px 1px, white -1px -1px 1px, white 1px -1px 1px, white -1px 1px 1px;">S 680-709</text></g><g class="sankey-node" transform="translate(94.000,564.101)" style="opacity: 1;"><rect class="node-rect" width="20" height="12.885730012744716" style="stroke-width: 0.5; stroke: rgb(68, 68, 68); stroke-opacity: 1; fill: rgb(100, 202, 204); fill-opacity: 1;"/><text class="node-label" data-notex="1" x="0" y="0" text-anchor="start" transform="translate(23.25,13.442865006372358)" style="cursor: default; font-family: Arial; font-size: 20px; fill: rgb(42, 63, 95); fill-opacity: 1; white-space: pre; text-shadow: white 1px 1px 1px, white -1px -1px 1px, white 1px -1px 1px, white -1px 1px 1px;">S 710-739</text></g><g class="sankey-node" transform="translate(94.000,589.487)" style="opacity: 1;"><rect class="node-rect" width="20" height="34.656859274380395" style="stroke-width: 0.5; stroke: rgb(68, 68, 68); stroke-opacity: 1; fill: rgb(178, 231, 121); fill-opacity: 1;"/><text class="node-label" data-notex="1" x="0" y="0" text-anchor="start" transform="translate(23.25,24.328429637190197)" style="cursor: default; font-family: Arial; font-size: 20px; fill: rgb(42, 63, 95); fill-opacity: 1; white-space: pre; text-shadow: white 1px 1px 1px, white -1px -1px 1px, white 1px -1px 1px, white -1px 1px 1px;">S 780-799</text></g><g class="sankey-node" transform="translate(94.000,636.643)" style="opacity: 1;"><rect class="node-rect" width="20" height="18.91309685764236" style="stroke-width: 0.5; stroke: rgb(68, 68, 68); stroke-opacity: 1; fill: rgb(164, 215, 194); fill-opacity: 1;"/><text class="node-label" data-notex="1" x="0" y="0" text-anchor="start" transform="translate(23.25,16.45654842882118)" style="cursor: default; font-family: Arial; font-size: 20px; fill: rgb(42, 63, 95); fill-opacity: 1; white-space: pre; text-shadow: white 1px 1px 1px, white -1px -1px 1px, white 1px -1px 1px, white -1px 1px 1px;">S 800-999</text></g><g class="sankey-node" transform="translate(926.000,0.000)" style="opacity: 1;"><rect class="node-rect" width="20" height="157.89149757759765" style="stroke-width: 0.5; stroke: rgb(68, 68, 68); stroke-opacity: 1; fill: rgb(255, 176, 155); fill-opacity: 1;"/><text class="node-label" data-notex="1" x="0" y="0" text-anchor="end" transform="translate(-3.25,85.94574878879882)" style="cursor: default; font-family: Arial; font-size: 20px; fill: rgb(42, 63, 95); fill-opacity: 1; white-space: pre; text-shadow: white 1px 1px 1px, white -1px -1px 1px, white 1px -1px 1px, white -1px 1px 1px;">T 001-139</text></g><g class="sankey-node" transform="translate(926.000,170.391)" style="opacity: 1;"><rect class="node-rect" width="20" height="9.55956114188757" style="stroke-width: 0.5; stroke: rgb(68, 68, 68); stroke-opacity: 1; fill: rgb(203, 205, 132); fill-opacity: 1;"/><text class="node-label" data-notex="1" x="0" y="0" text-anchor="end" transform="translate(-3.25,11.779780570943785)" style="cursor: default; font-family: Arial; font-size: 20px; fill: rgb(42, 63, 95); fill-opacity: 1; white-space: pre; text-shadow: white 1px 1px 1px, white -1px -1px 1px, white 1px -1px 1px, white -1px 1px 1px;">T 140-239</text></g><g class="sankey-node" transform="translate(926.000,192.451)" style="opacity: 1;"><rect class="node-rect" width="20" height="34.83550318010737" style="stroke-width: 0.5; stroke: rgb(68, 68, 68); stroke-opacity: 1; fill: rgb(255, 191, 116); fill-opacity: 1;"/><text class="node-label" data-notex="1" x="0" y="0" text-anchor="end" transform="translate(-3.25,24.417751590053683)" style="cursor: default; font-family: Arial; font-size: 20px; fill: rgb(42, 63, 95); fill-opacity: 1; white-space: pre; text-shadow: white 1px 1px 1px, white -1px -1px 1px, white 1px -1px 1px, white -1px 1px 1px;">T 240-279</text></g><g class="sankey-node" transform="translate(926.000,239.787)" style="opacity: 1;"><rect class="node-rect" width="20" height="2.9377968164138792" style="stroke-width: 0.5; stroke: rgb(68, 68, 68); stroke-opacity: 1; fill: rgb(255, 173, 201); fill-opacity: 1;"/><text class="node-label" data-notex="1" x="0" y="0" text-anchor="end" transform="translate(-3.25,8.46889840820694)" style="cursor: default; font-family: Arial; font-size: 20px; fill: rgb(42, 63, 95); fill-opacity: 1; white-space: pre; text-shadow: white 1px 1px 1px, white -1px -1px 1px, white 1px -1px 1px, white -1px 1px 1px;">T 280-289</text></g><g class="sankey-node" transform="translate(926.000,255.224)" style="opacity: 1;"><rect class="node-rect" width="20" height="9.66155966027577" style="stroke-width: 0.5; stroke: rgb(68, 68, 68); stroke-opacity: 1; fill: rgb(255, 186, 246); fill-opacity: 1;"/><text class="node-label" data-notex="1" x="0" y="0" text-anchor="end" transform="translate(-3.25,11.830779830137885)" style="cursor: default; font-family: Arial; font-size: 20px; fill: rgb(42, 63, 95); fill-opacity: 1; white-space: pre; text-shadow: white 1px 1px 1px, white -1px -1px 1px, white 1px -1px 1px, white -1px 1px 1px;">T 290-319</text></g><g class="sankey-node" transform="translate(926.000,277.386)" style="opacity: 1;"><rect class="node-rect" width="20" height="3.4223337343071876" style="stroke-width: 0.5; stroke: rgb(68, 68, 68); stroke-opacity: 1; fill: rgb(166, 216, 255); fill-opacity: 1;"/><text class="node-label" data-notex="1" x="0" y="0" text-anchor="end" transform="translate(-3.25,8.711166867153594)" style="cursor: default; font-family: Arial; font-size: 20px; fill: rgb(42, 63, 95); fill-opacity: 1; white-space: pre; text-shadow: white 1px 1px 1px, white -1px -1px 1px, white 1px -1px 1px, white -1px 1px 1px;">T 320-389</text></g><g class="sankey-node" transform="translate(926.000,433.582)" style="opacity: 1;"><rect class="node-rect" width="20" height="27.396328925210582" style="stroke-width: 0.5; stroke: rgb(68, 68, 68); stroke-opacity: 1; fill: rgb(234, 213, 94); fill-opacity: 1;"/><text class="node-label" data-notex="1" x="0" y="0" text-anchor="end" transform="translate(-3.25,20.69816446260529)" style="cursor: default; font-family: Arial; font-size: 20px; fill: rgb(42, 63, 95); fill-opacity: 1; white-space: pre; text-shadow: white 1px 1px 1px, white -1px -1px 1px, white 1px -1px 1px, white -1px 1px 1px;">T 390-459</text></g><g class="sankey-node" transform="translate(926.000,293.308)" style="opacity: 1;"><rect class="node-rect" width="20" height="127.77376909269788" style="stroke-width: 0.5; stroke: rgb(68, 68, 68); stroke-opacity: 1; fill: rgb(85, 245, 255); fill-opacity: 1;"/><text class="node-label" data-notex="1" x="0" y="0" text-anchor="end" transform="translate(-3.25,70.88688454634894)" style="cursor: default; font-family: Arial; font-size: 20px; fill: rgb(42, 63, 95); fill-opacity: 1; white-space: pre; text-shadow: white 1px 1px 1px, white -1px -1px 1px, white 1px -1px 1px, white -1px 1px 1px;">T 460-519</text></g><g class="sankey-node" transform="translate(926.000,473.478)" style="opacity: 1;"><rect class="node-rect" width="20" height="16.587401979275228" style="stroke-width: 0.5; stroke: rgb(68, 68, 68); stroke-opacity: 1; fill: rgb(89, 243, 209); fill-opacity: 1;"/><text class="node-label" data-notex="1" x="0" y="0" text-anchor="end" transform="translate(-3.25,15.293700989637614)" style="cursor: default; font-family: Arial; font-size: 20px; fill: rgb(42, 63, 95); fill-opacity: 1; white-space: pre; text-shadow: white 1px 1px 1px, white -1px -1px 1px, white 1px -1px 1px, white -1px 1px 1px;">T 520-579</text></g><g class="sankey-node" transform="translate(926.000,502.566)" style="opacity: 1;"><rect class="node-rect" width="20" height="15.977269339086149" style="stroke-width: 0.5; stroke: rgb(68, 68, 68); stroke-opacity: 1; fill: rgb(237, 187, 206); fill-opacity: 1;"/><text class="node-label" data-notex="1" x="0" y="0" text-anchor="end" transform="translate(-3.25,14.988634669543075)" style="cursor: default; font-family: Arial; font-size: 20px; fill: rgb(42, 63, 95); fill-opacity: 1; white-space: pre; text-shadow: white 1px 1px 1px, white -1px -1px 1px, white 1px -1px 1px, white -1px 1px 1px;">T 580-629</text></g><g class="sankey-node" transform="translate(926.000,531.043)" style="opacity: 1;"><rect class="node-rect" width="20" height="7.266912655634201" style="stroke-width: 0.5; stroke: rgb(68, 68, 68); stroke-opacity: 1; fill: rgb(133, 228, 159); fill-opacity: 1;"/><text class="node-label" data-notex="1" x="0" y="0" text-anchor="end" transform="translate(-3.25,10.6334563278171)" style="cursor: default; font-family: Arial; font-size: 20px; fill: rgb(42, 63, 95); fill-opacity: 1; white-space: pre; text-shadow: white 1px 1px 1px, white -1px -1px 1px, white 1px -1px 1px, white -1px 1px 1px;">T 680-709</text></g><g class="sankey-node" transform="translate(926.000,550.810)" style="opacity: 1;"><rect class="node-rect" width="20" height="0.5" style="stroke-width: 0.5; stroke: rgb(68, 68, 68); stroke-opacity: 1; fill: rgb(100, 202, 204); fill-opacity: 1;"/><text class="node-label" data-notex="1" x="0" y="0" text-anchor="end" transform="translate(-3.25,7.25)" style="cursor: default; font-family: Arial; font-size: 20px; fill: rgb(42, 63, 95); fill-opacity: 1; white-space: pre; text-shadow: white 1px 1px 1px, white -1px -1px 1px, white 1px -1px 1px, white -1px 1px 1px;">T 710-739</text></g><g class="sankey-node" transform="translate(926.000,563.333)" style="opacity: 1;"><rect class="node-rect" width="20" height="38.09341841051901" style="stroke-width: 0.5; stroke: rgb(68, 68, 68); stroke-opacity: 1; fill: rgb(178, 231, 121); fill-opacity: 1;"/><text class="node-label" data-notex="1" x="0" y="0" text-anchor="end" transform="translate(-3.25,26.046709205259504)" style="cursor: default; font-family: Arial; font-size: 20px; fill: rgb(42, 63, 95); fill-opacity: 1; white-space: pre; text-shadow: white 1px 1px 1px, white -1px -1px 1px, white 1px -1px 1px, white -1px 1px 1px;">T 780-799</text></g><g class="sankey-node" transform="translate(926.000,613.926)" style="opacity: 1;"><rect class="node-rect" width="20" height="6.073702736664927" style="stroke-width: 0.5; stroke: rgb(68, 68, 68); stroke-opacity: 1; fill: rgb(164, 215, 194); fill-opacity: 1;"/><text class="node-label" data-notex="1" x="0" y="0" text-anchor="end" transform="translate(-3.25,10.036851368332464)" style="cursor: default; font-family: Arial; font-size: 20px; fill: rgb(42, 63, 95); fill-opacity: 1; white-space: pre; text-shadow: white 1px 1px 1px, white -1px -1px 1px, white 1px -1px 1px, white -1px 1px 1px;">T 800-999</text></g></g></g><defs id="topdefs-bdd32c"><g class="clips"/></defs><g class="layer-above"><g class="imagelayer"/><g class="shapelayer"/></g><g class="infolayer"><g class="g-gtitle"/><g class="first-render"/></g></svg>