<?xml version="1.0" encoding="UTF-8"?>
<svg xmlns="http://www.w3.org/2000/svg" xmlns:xlink="http://www.w3.org/1999/xlink"
     width="2400.0" height="2400.0" viewBox="-1200 -1200 2400.0 2400.0">
<defs>
<linearGradient x1="600.0" y1="-0.0" x2="566.8653020401172" y2="-196.6309470631893" gradientUnits="userSpaceOnUse" id="d0">
<stop offset="0" stop-color="#FFB09B" />
<stop offset="1" stop-color="#FFB09B" />
</linearGradient>
<linearGradient x1="595.0646163585628" y1="-76.79910388823822" x2="555.3495465449076" y2="227.12745574316958" gradientUnits="userSpaceOnUse" id="d1">
<stop offset="0" stop-color="#FFB09B" />
<stop offset="1" stop-color="#59F3D1" />
</linearGradient>
<linearGradient x1="117.43330211149625" y1="-588.3956318287807" x2="34.129581326349495" y2="-599.0285232595256" gradientUnits="userSpaceOnUse" id="d2">
<stop offset="0" stop-color="#FFB09B" />
<stop offset="1" stop-color="#FFBF74" />
</linearGradient>
<linearGradient x1="133.28937180170806" y1="-585.0076438515192" x2="-48.65642460219916" y2="-598.0238727215917" gradientUnits="userSpaceOnUse" id="d3">
<stop offset="0" stop-color="#FFB09B" />
<stop offset="1" stop-color="#FFBF74" />
</linearGradient>
<linearGradient x1="166.83441634798916" y1="-576.3386829996975" x2="-75.17480519299637" y2="-595.2719955316184" gradientUnits="userSpaceOnUse" id="d4">
<stop offset="0" stop-color="#FFB09B" />
<stop offset="1" stop-color="#FFBF74" />
</linearGradient>
<linearGradient x1="179.26686342483382" y1="-572.5935658718337" x2="-143.89469762356288" y2="-582.4897561295163" gradientUnits="userSpaceOnUse" id="d5">
<stop offset="0" stop-color="#FFB09B" />
<stop offset="1" stop-color="#EAD55E" />
</linearGradient>
<linearGradient x1="192.46934052496763" y1="-568.2917850522599" x2="-214.03393544999275" y2="-560.526069398907" gradientUnits="userSpaceOnUse" id="d6">
<stop offset="0" stop-color="#FFB09B" />
<stop offset="1" stop-color="#EAD55E" />
</linearGradient>
<linearGradient x1="205.22281228945752" y1="-563.8116683042363" x2="-279.6594558325882" y2="-530.8395131896463" gradientUnits="userSpaceOnUse" id="d7">
<stop offset="0" stop-color="#FFB09B" />
<stop offset="1" stop-color="#EAD55E" />
</linearGradient>
<linearGradient x1="218.989138250747" y1="-558.6087694694697" x2="-345.1895964574954" y2="-490.7587416414622" gradientUnits="userSpaceOnUse" id="d8">
<stop offset="0" stop-color="#FFB09B" />
<stop offset="1" stop-color="#EAD55E" />
</linearGradient>
<linearGradient x1="233.1131324734799" y1="-552.8636970071392" x2="-406.6263343130053" y2="-441.19726227977446" gradientUnits="userSpaceOnUse" id="d9">
<stop offset="0" stop-color="#FFB09B" />
<stop offset="1" stop-color="#EAD55E" />
</linearGradient>
<linearGradient x1="247.6102636201196" y1="-546.5246173320785" x2="-479.0302219404089" y2="-361.28942202578054" gradientUnits="userSpaceOnUse" id="d10">
<stop offset="0" stop-color="#FFB09B" />
<stop offset="1" stop-color="#EAD55E" />
</linearGradient>
<linearGradient x1="263.2595580094445" y1="-539.1608341827807" x2="-574.4319437830675" y2="-173.28572347890278" gradientUnits="userSpaceOnUse" id="d11">
<stop offset="0" stop-color="#FFB09B" />
<stop offset="1" stop-color="#EAD55E" />
</linearGradient>
<linearGradient x1="321.97386984505533" y1="-506.29322248771945" x2="-583.518124071168" y2="-139.66602622135775" gradientUnits="userSpaceOnUse" id="d12">
<stop offset="0" stop-color="#FFB09B" />
<stop offset="1" stop-color="#55F5FF" />
</linearGradient>
<linearGradient x1="352.87273552176663" y1="-485.263673197763" x2="-589.2754043439903" y2="-112.9358128993045" gradientUnits="userSpaceOnUse" id="d13">
<stop offset="0" stop-color="#FFB09B" />
<stop offset="1" stop-color="#55F5FF" />
</linearGradient>
<linearGradient x1="352.87273552176663" y1="-485.263673197763" x2="-348.38673047639554" y2="488.4943050107824" gradientUnits="userSpaceOnUse" id="d14">
<stop offset="0" stop-color="#FFB09B" />
<stop offset="1" stop-color="#55F5FF" />
</linearGradient>
<linearGradient x1="405.8719023196903" y1="-441.8913881344552" x2="564.7247672622937" y2="202.6966631213951" gradientUnits="userSpaceOnUse" id="d15">
<stop offset="0" stop-color="#FFB09B" />
<stop offset="1" stop-color="#EDBBCE" />
</linearGradient>
<linearGradient x1="417.63805874396024" y1="-430.78817519585704" x2="587.2216713232227" y2="123.1694309817212" gradientUnits="userSpaceOnUse" id="d16">
<stop offset="0" stop-color="#FFB09B" />
<stop offset="1" stop-color="#B2E779" />
</linearGradient>
<linearGradient x1="512.2596427144346" y1="-312.3940755617491" x2="596.14401293771" y2="67.91403270696979" gradientUnits="userSpaceOnUse" id="d17">
<stop offset="0" stop-color="#FFB09B" />
<stop offset="1" stop-color="#B2E779" />
</linearGradient>
<linearGradient x1="524.4979288769254" y1="-291.3793448475984" x2="598.388867261127" y2="43.94045445765693" gradientUnits="userSpaceOnUse" id="d18">
<stop offset="0" stop-color="#FFB09B" />
<stop offset="1" stop-color="#B2E779" />
</linearGradient>
<linearGradient x1="-406.6263343130053" y1="-441.19726227977446" x2="-543.2875176000707" y2="-254.63439127492728" gradientUnits="userSpaceOnUse" id="d19">
<stop offset="0" stop-color="#EAD55E" />
<stop offset="1" stop-color="#EAD55E" />
</linearGradient>
<linearGradient x1="-589.2754043439903" y1="-112.9358128993045" x2="383.53505188654293" y2="461.41181603247526" gradientUnits="userSpaceOnUse" id="d20">
<stop offset="0" stop-color="#55F5FF" />
<stop offset="1" stop-color="#55F5FF" />
</linearGradient>
<linearGradient x1="-599.9106663986355" y1="-10.353373418600018" x2="74.85988406619671" y2="595.3116811869187" gradientUnits="userSpaceOnUse" id="d21">
<stop offset="0" stop-color="#55F5FF" />
<stop offset="1" stop-color="#55F5FF" />
</linearGradient>
<linearGradient x1="-584.126931051397" y1="137.09751427533777" x2="42.351899067620394" y2="598.5033973549074" gradientUnits="userSpaceOnUse" id="d22">
<stop offset="0" stop-color="#55F5FF" />
<stop offset="1" stop-color="#55F5FF" />
</linearGradient>
<linearGradient x1="-517.9841299538958" y1="302.80759752011767" x2="2.1154289670009008" y2="599.9962707886488" gradientUnits="userSpaceOnUse" id="d23">
<stop offset="0" stop-color="#55F5FF" />
<stop offset="1" stop-color="#55F5FF" />
</linearGradient>
<linearGradient x1="-334.2998685566991" y1="498.24050204993745" x2="-56.63995953875998" y2="597.3206132249645" gradientUnits="userSpaceOnUse" id="d24">
<stop offset="0" stop-color="#55F5FF" />
<stop offset="1" stop-color="#55F5FF" />
</linearGradient>
<linearGradient x1="397.2027522783498" y1="449.6998705609152" x2="555.3495465449076" y2="227.12745574316958" gradientUnits="userSpaceOnUse" id="d25">
<stop offset="0" stop-color="#59F3D1" />
<stop offset="1" stop-color="#59F3D1" />
</linearGradient>
</defs>
<rect x="-1200" y="-1200" width="2400.0" height="2400.0" fill="#ffffff" fill-opacity="0.05" />
<path d="M600.0,-0.0 A600,600,0,0,0,599.422345749746,-26.32207088874038 L641.3819099522283,-28.16461585095221 A642.0,642.0,0,0,1,642.0,-0.0 Z" fill="#FFB09B" fill-opacity="0.9" />
<path d="M598.3630822413826,-44.29019993850062 A600,600,0,0,0,595.0646163585628,-76.79910388823822 L636.7191395036623,-82.1750411604149 A642.0,642.0,0,0,1,640.2484979982794,-47.39051393419567 Z" fill="#FFB09B" fill-opacity="0.9" />
<path d="M592.4932298277987,-94.6138077038618 A600,600,0,0,0,104.45171769695503,-590.8382508522579 L111.76333793574189,-632.196928411916 A642.0,642.0,0,0,1,633.9677559157446,-101.23677424313213 Z" fill="#FFB09B" fill-opacity="0.9" />
<path d="M86.68222907605,-593.7054750988972 A600,600,0,0,0,34.129581326349495,-599.0285232595256 L36.518652019193965,-640.9605198876925 A642.0,642.0,0,0,1,92.74998511137352,-635.26485835582 Z" fill="#FFBF74" fill-opacity="0.9" />
<path d="M16.146063975859658,-599.7827145042506 A600,600,0,0,0,-48.65642460219916,-598.0238727215917 L-52.0623743243531,-639.8855438121032 A642.0,642.0,0,0,1,17.276288454169833,-641.7675045195482 Z" fill="#FFBF74" fill-opacity="0.9" />
<path d="M-66.572556048551,-596.2953083675592 A600,600,0,0,0,-75.17480519299637,-595.2719955316184 L-80.43704155650613,-636.9410352188316 A642.0,642.0,0,0,1,-71.23263497194957,-638.0359799532883 Z" fill="#FFBF74" fill-opacity="0.9" />
<path d="M-92.99646033024175,-592.7492373390672 A600,600,0,0,0,-143.89469762356288,-582.4897561295163 L-153.9673264572123,-623.2640390585825 A642.0,642.0,0,0,1,-99.50621255335868,-634.241683952802 Z" fill="#EAD55E" fill-opacity="0.9" />
<path d="M-161.30202146386722,-577.9114619659919 A600,600,0,0,0,-214.03393544999275,-560.526069398907 L-229.01631093149226,-599.7628942568306 A642.0,642.0,0,0,1,-172.59316296633793,-618.3652643036113 Z" fill="#EAD55E" fill-opacity="0.9" />
<path d="M-230.7508872306279,-553.8537966307337 A600,600,0,0,0,-279.6594558325882,-530.8395131896463 L-299.2356177408694,-567.9982791129215 A642.0,642.0,0,0,1,-246.90344933677187,-592.6235623948851 Z" fill="#EAD55E" fill-opacity="0.9" />
<path d="M-295.4564152410597,-522.2121280599509 A600,600,0,0,0,-345.1895964574954,-490.7587416414622 L-369.35286820952007,-525.1118535563646 A642.0,642.0,0,0,1,-316.1383643079339,-558.7669770241475 Z" fill="#EAD55E" fill-opacity="0.9" />
<path d="M-359.75482672317185,-480.18378215989406 A600,600,0,0,0,-425.8401589199244,-422.68210164502295 L-455.6489700443191,-452.26984876017457 A642.0,642.0,0,0,1,-384.9376645937939,-513.7966469110867 Z" fill="#EAD55E" fill-opacity="0.9" />
<path d="M-438.3271062855692,-409.71862039126233 A600,600,0,0,0,-479.0302219404089,-361.28942202578054 L-512.5623374762375,-386.5796815675852 A642.0,642.0,0,0,1,-469.01000372555905,-438.3989238186507 Z" fill="#EAD55E" fill-opacity="0.9" />
<path d="M-489.6517314388544,-346.7581028598062 A600,600,0,0,0,-543.2875176000707,-254.63439127492728 L-581.3176438320756,-272.4587986641722 A642.0,642.0,0,0,1,-523.9273526395742,-371.03117005999263 Z" fill="#EAD55E" fill-opacity="0.9" />
<path d="M-550.6809424876038,-238.2236335483203 A600,600,0,0,0,-574.4319437830675,-173.28572347890278 L-614.6421798478823,-185.41572412242598 A642.0,642.0,0,0,1,-589.2286084617361,-254.89928789670273 Z" fill="#EAD55E" fill-opacity="0.9" />
<path d="M-579.3712607485626,-155.97737726549013 A600,600,0,0,0,-583.518124071168,-139.66602622135775 L-624.3643927561499,-149.44264805685282 A642.0,642.0,0,0,1,-619.927249000962,-166.89579367407444 Z" fill="#55F5FF" fill-opacity="0.9" />
<path d="M-587.4449129262863,-122.10026321440863 A600,600,0,0,0,-599.3301722306596,-28.34333526541698 L-641.2832842868058,-30.32736873399617 A642.0,642.0,0,0,1,-628.5660568311264,-130.64728163941723 Z" fill="#55F5FF" fill-opacity="0.9" />
<path d="M-599.9106663986355,-10.353373418600018 A600,600,0,0,0,-587.976402163324,119.51464554218093 L-629.1347503147567,127.8806707301336 A642.0,642.0,0,0,1,-641.9044130465401,-11.07810955790202 Z" fill="#55F5FF" fill-opacity="0.9" />
<path d="M-584.126931051397,137.09751427533777 A600,600,0,0,0,-526.8339199295884,287.13415124576187 L-563.7122943246596,307.2335418329652 A642.0,642.0,0,0,1,-625.0158162249949,146.69434027461142 Z" fill="#55F5FF" fill-opacity="0.9" />
<path d="M-517.9841299538958,302.80759752011767 A600,600,0,0,0,-362.88259923024964,477.8244648151641 L-388.28438117636716,511.27217735222564 A642.0,642.0,0,0,1,-554.2430190506685,324.00412934652593 Z" fill="#55F5FF" fill-opacity="0.9" />
<path d="M-348.38673047639554,488.4943050107824 A600,600,0,0,0,-129.66478822943984,585.8216816518611 L-138.74132340550062,626.8291993674915 A642.0,642.0,0,0,1,-372.77380160974326,522.6889063615372 Z" fill="#55F5FF" fill-opacity="0.9" />
<path d="M-112.03442908017702,589.4474418475992 A600,600,0,0,0,383.53505188654293,461.41181603247526 L410.38250551860096,493.71064315474854 A642.0,642.0,0,0,1,-119.87683911578942,630.7087627769312 Z" fill="#55F5FF" fill-opacity="0.9" />
<path d="M397.2027522783498,449.6998705609152 A600,600,0,0,0,525.382845567522,289.78071982686026 L562.1596447572487,310.0653702147405 A642.0,642.0,0,0,1,425.0069449378343,481.17886150017927 Z" fill="#59F3D1" fill-opacity="0.9" />
<path d="M533.8385586584018,273.8912070321355 A600,600,0,0,0,558.3906723762117,219.54465833456823 L597.4780194425465,234.912784417988 A642.0,642.0,0,0,1,571.2072577644899,293.063591524385 Z" fill="#59F3D1" fill-opacity="0.9" />
<path d="M564.7247672622937,202.6966631213951 A600,600,0,0,0,583.2629126973106,140.72801665570876 L624.0913165861224,150.5789778216084 A642.0,642.0,0,0,1,604.2555009706542,216.88542953989275 Z" fill="#EDBBCE" fill-opacity="0.9" />
<path d="M587.2216713232227,123.1694309817212 A600,600,0,0,0,593.8386528693308,85.7651115450713 L635.407358570184,91.7686693532263 A642.0,642.0,0,0,1,628.3271883158484,131.7912911504417 Z" fill="#B2E779" fill-opacity="0.9" />
<path d="M596.14401293771,67.91403270696979 A600,600,0,0,0,596.8015965552954,61.86965612519926 L638.5777083141661,66.20053205396322 A642.0,642.0,0,0,1,637.8740938433498,72.66801499645769 Z" fill="#B2E779" fill-opacity="0.9" />
<path d="M598.388867261127,43.94045445765693 A600,600,0,0,0,599.7300202493925,17.99730012149663 L641.71112166685,19.257111130001395 A642.0,642.0,0,0,1,640.2760879694059,47.01628626969291 Z" fill="#B2E779" fill-opacity="0.9" />
<path d="M594.0,-0.0 A594.0,594.0,0,0,0,593.4281222922485,-26.05885017985298 C237.37124891689942,-10.423540071941192,234.62731901180828,-37.46706785072927,586.5682975295207,-93.66766962682318 A594.0,594.0,0,0,0,561.196649019716,-194.6646375925574 C224.4786596078864,-77.86585503702297,237.60000000000002,-0.0,594.0,-0.0 Z" fill="url(#d0)" fill-opacity="0.6" />
<path d="M592.3794514189688,-43.84729793911562 A594.0,594.0,0,0,0,589.1139701949772,-76.03111284935584 C235.6455880779909,-30.412445139742335,219.91842043178346,89.94247247429516,549.7960510794586,224.85618118573788 A594.0,594.0,0,0,0,552.8067656524495,217.34921175122253 C221.1227062609798,86.93968470048901,236.95178056758752,-17.53891917564625,592.3794514189688,-43.84729793911562 Z" fill="url(#d1)" fill-opacity="0.6" />
<path d="M116.25896909038129,-582.5116755104929 A594.0,594.0,0,0,0,103.40720051998548,-584.9298683437353 C41.362880207994195,-233.97194733749413,34.3261627141158,-235.1073681391633,85.81540678528951,-587.7684203479082 A594.0,594.0,0,0,0,33.788285513086,-593.0382380269305 C13.515314205234402,-237.21529521077218,46.50358763615252,-233.00467020419717,116.25896909038129,-582.5116755104929 Z" fill="url(#d2)" fill-opacity="0.6" />
<path d="M131.95647808369097,-579.157567413004 A594.0,594.0,0,0,0,116.25896909038129,-582.5116755104929 C46.50358763615252,-233.00467020419717,6.393841334440425,-237.51395494368327,15.984603336101062,-593.7848873592081 A594.0,594.0,0,0,0,-48.16986035617717,-592.0436339943758 C-19.267944142470867,-236.81745359775033,52.78259123347639,-231.66302696520162,131.95647808369097,-579.157567413004 Z" fill="url(#d3)" fill-opacity="0.6" />
<path d="M165.16607218450926,-570.5752961697006 A594.0,594.0,0,0,0,131.95647808369097,-579.157567413004 C52.78259123347639,-231.66302696520162,-26.362732195226194,-236.13294211355347,-65.90683048806548,-590.3323552838837 A594.0,594.0,0,0,0,-74.42305714106641,-589.3192755763022 C-29.769222856426566,-235.72771023052087,66.0664288738037,-228.23011846788023,165.16607218450926,-570.5752961697006 Z" fill="url(#d4)" fill-opacity="0.6" />
<path d="M177.47419479058547,-566.8676302131154 A594.0,594.0,0,0,0,165.16607218450926,-570.5752961697006 C66.0664288738037,-228.23011846788023,-36.826598290775735,-234.72869798627062,-92.06649572693934,-586.8217449656765 A594.0,594.0,0,0,0,-142.45575064732725,-576.6648585682211 C-56.982300258930906,-230.66594342728845,70.98967791623419,-226.74705208524617,177.47419479058547,-566.8676302131154 Z" fill="url(#d5)" fill-opacity="0.6" />
<path d="M190.54464711971795,-562.6088672017373 A594.0,594.0,0,0,0,177.47419479058547,-566.8676302131154 C70.98967791623419,-226.74705208524617,-63.875600499691416,-228.8529389385328,-159.68900124922854,-572.1323473463319 A594.0,594.0,0,0,0,-211.89359609549282,-554.9208087049179 C-84.75743843819714,-221.9683234819672,76.21785884788719,-225.04354688069495,190.54464711971795,-562.6088672017373 Z" fill="url(#d6)" fill-opacity="0.6" />
<path d="M203.17058416656295,-558.1735516211938 A594.0,594.0,0,0,0,190.54464711971795,-562.6088672017373 C76.21785884788719,-225.04354688069495,-91.37735134332866,-219.32610346577053,-228.4433783583216,-548.3152586644263 A594.0,594.0,0,0,0,-276.86286127426234,-525.5311180577498 C-110.74514450970494,-210.21244722309996,81.26823366662518,-223.26942064847753,203.17058416656295,-558.1735516211938 Z" fill="url(#d7)" fill-opacity="0.6" />
<path d="M216.79924686823955,-553.022681774775 A594.0,594.0,0,0,0,203.17058416656295,-558.1735516211938 C81.26823366662518,-223.26942064847753,-117.00074043545963,-206.79600271174056,-292.50185108864906,-516.9900067793513 A594.0,594.0,0,0,0,-341.73770049292045,-485.8511542250476 C-136.69508019716818,-194.34046169001905,86.71969874729582,-221.20907270991003,216.79924686823955,-553.022681774775 Z" fill="url(#d8)" fill-opacity="0.6" />
<path d="M230.7820011487451,-547.3350600370678 A594.0,594.0,0,0,0,216.79924686823955,-553.022681774775 C86.71969874729582,-221.20907270991003,-142.46291138237606,-190.15277773531807,-356.1572784559401,-475.3819443382951 A594.0,594.0,0,0,0,-402.56007096987526,-436.7852896569767 C-161.02402838795012,-174.7141158627907,92.31280045949805,-218.93402401482714,230.7820011487451,-547.3350600370678 Z" fill="url(#d9)" fill-opacity="0.6" />
<path d="M245.1341609839184,-541.0593711587577 A594.0,594.0,0,0,0,230.7820011487451,-547.3350600370678 C92.31280045949805,-218.93402401482714,-173.57753408908542,-162.24857367493988,-433.9438352227135,-405.6214341873497 A594.0,594.0,0,0,0,-474.2399197210048,-357.67652780552277 C-189.69596788840192,-143.0706111222091,98.05366439356737,-216.4237484635031,245.1341609839184,-541.0593711587577 Z" fill="url(#d10)" fill-opacity="0.6" />
<path d="M260.6269624293501,-533.7692258409529 A594.0,594.0,0,0,0,245.1341609839184,-541.0593711587577 C98.05366439356737,-216.4237484635031,-218.0696532250911,-94.33655888513485,-545.1741330627277,-235.8413972128371 A594.0,594.0,0,0,0,-568.6876243452368,-171.55286624411377 C-227.47504973809475,-68.62114649764551,104.25078497174005,-213.5076903363812,260.6269624293501,-533.7692258409529 Z" fill="url(#d11)" fill-opacity="0.6" />
<path d="M318.7541311466048,-501.2302902628423 A594.0,594.0,0,0,0,260.6269624293501,-533.7692258409529 C104.25078497174005,-213.5076903363812,-229.43101925643083,-61.7670413971341,-573.577548141077,-154.41760349283524 A594.0,594.0,0,0,0,-577.6829428304563,-138.26936595914418 C-231.07317713218254,-55.30774638365767,127.50165245864191,-200.49211610513692,318.7541311466048,-501.2302902628423 Z" fill="url(#d12)" fill-opacity="0.6" />
<path d="M349.3440081665489,-480.41103646578534 A594.0,594.0,0,0,0,318.7541311466048,-501.2302902628423 C127.50165245864191,-200.49211610513692,-232.62818551880937,-48.35170423290582,-581.5704637970234,-120.87926058226454 A594.0,594.0,0,0,0,-583.3826503005504,-111.80645477031145 C-233.35306012022016,-44.72258190812458,139.73760326661957,-192.16441458631414,349.3440081665489,-480.41103646578534 Z" fill="url(#d13)" fill-opacity="0.6" />
<path d="M401.8131832964934,-437.47247425311065 A594.0,594.0,0,0,0,349.3440081665489,-480.41103646578534 C139.73760326661957,-192.16441458631414,-137.96114526865264,193.44374478426985,-344.90286317163157,483.6093619606746 A594.0,594.0,0,0,0,-330.95686987113214,493.2580970294381 C-132.38274794845287,197.30323881177526,160.72527331859737,-174.98898970124426,401.8131832964934,-437.47247425311065 Z" fill="url(#d14)" fill-opacity="0.6" />
<path d="M413.46167815652063,-426.48029344389846 A594.0,594.0,0,0,0,401.8131832964934,-437.47247425311065 C160.72527331859737,-174.98898970124426,223.6310078358683,80.26787859607246,559.0775195896707,200.66969649018114 A594.0,594.0,0,0,0,577.4302835703375,139.32073648915167 C230.972113428135,55.72829459566067,165.38467126260826,-170.5921173775594,413.46167815652063,-426.48029344389846 Z" fill="url(#d15)" fill-opacity="0.6" />
<path d="M507.1370462872903,-309.27013480613164 A594.0,594.0,0,0,0,413.46167815652063,-426.48029344389846 C165.38467126260826,-170.5921173775594,232.53978184399622,48.775094668761604,581.3494546099905,121.937736671904 A594.0,594.0,0,0,0,587.9002663406375,84.9074604296206 C235.160106536255,33.96298417184824,202.85481851491613,-123.70805392245266,507.1370462872903,-309.27013480613164 Z" fill="url(#d16)" fill-opacity="0.6" />
<path d="M519.2529495881562,-288.46555139912243 A594.0,594.0,0,0,0,507.1370462872903,-309.27013480613164 C202.85481851491613,-123.70805392245266,236.0730291233332,26.893956951960043,590.182572808333,67.2348923799001 A594.0,594.0,0,0,0,590.8335805897424,61.25095956394727 C236.33343223589696,24.500383825578908,207.70117983526248,-115.38622055964898,519.2529495881562,-288.46555139912243 Z" fill="url(#d17)" fill-opacity="0.6" />
<path d="M561.196649019716,-194.6646375925574 A594.0,594.0,0,0,0,519.2529495881562,-288.46555139912243 C207.70117983526248,-115.38622055964898,236.96199143540628,17.400419965232143,592.4049785885156,43.50104991308036 A594.0,594.0,0,0,0,593.7327200468986,17.81732712028166 C237.49308801875947,7.126930848112664,224.4786596078864,-77.86585503702297,561.196649019716,-194.6646375925574 Z" fill="url(#d18)" fill-opacity="0.6" />
<path d="M-402.56007096987526,-436.7852896569767 A594.0,594.0,0,0,0,-421.58175733072517,-418.4552806285727 C-168.63270293229007,-167.3821122514291,-193.9020856497864,-137.31620873248326,-484.7552141244659,-343.29052183120814 A594.0,594.0,0,0,0,-537.8546424240701,-252.088047362178 C-215.14185696962807,-100.8352189448712,-161.02402838795012,-174.7141158627907,-402.56007096987526,-436.7852896569767 Z" fill="url(#d19)" fill-opacity="0.6" />
<path d="M-583.3826503005504,-111.80645477031145 A594.0,594.0,0,0,0,-593.3368705083531,-28.059901912762808 C-237.33474820334123,-11.223960765105124,29.6445140902139,235.74342575001984,74.11128522553474,589.3585643750496 A594.0,594.0,0,0,0,379.6997013676775,456.79769787215054 C151.879880547071,182.71907914886023,-233.35306012022016,-44.72258190812458,-583.3826503005504,-111.80645477031145 Z" fill="url(#d20)" fill-opacity="0.6" />
<path d="M-593.9115597346492,-10.249839684414018 A594.0,594.0,0,0,0,-582.0966381416907,118.31949908675912 C-232.8386552566763,47.32779963470365,16.771352030777674,237.00734535254333,41.92838007694419,592.5183633813583 A594.0,594.0,0,0,0,74.11128522553474,589.3585643750496 C29.6445140902139,235.74342575001984,-237.5646238938597,-4.099935873765608,-593.9115597346492,-10.249839684414018 Z" fill="url(#d21)" fill-opacity="0.6" />
<path d="M-578.285661740883,135.72653913258438 A594.0,594.0,0,0,0,-521.5655807302925,284.26280973330427 C-208.626232292117,113.70512389332171,0.8377098709323567,237.59852323230496,2.094274677330892,593.9963080807623 A594.0,594.0,0,0,0,41.92838007694419,592.5183633813583 C16.771352030777674,237.00734535254333,-231.31426469635323,54.290615653033754,-578.285661740883,135.72653913258438 Z" fill="url(#d22)" fill-opacity="0.6" />
<path d="M-512.8042886543569,299.77952154491646 A594.0,594.0,0,0,0,-359.25377323794714,473.04622016701245 C-143.70150929517885,189.21848806680498,-22.429423977348954,236.53896283708596,-56.07355994337238,591.3474070927149 A594.0,594.0,0,0,0,2.094274677330892,593.9963080807623 C0.8377098709323567,237.59852323230496,-205.12171546174278,119.91180861796659,-512.8042886543569,299.77952154491646 Z" fill="url(#d23)" fill-opacity="0.6" />
<path d="M-330.95686987113214,493.2580970294381 A594.0,594.0,0,0,0,-128.36814034714544,579.9634648353425 C-51.34725613885818,231.985385934137,-44.3656339157501,233.4211869716493,-110.91408478937525,583.5529674291232 A594.0,594.0,0,0,0,-56.07355994337238,591.3474070927149 C-22.429423977348954,236.53896283708596,-132.38274794845287,197.30323881177526,-330.95686987113214,493.2580970294381 Z" fill="url(#d24)" fill-opacity="0.6" />
<path d="M393.23072475556626,445.20287185530606 A594.0,594.0,0,0,0,520.1290171118468,286.88291262859167 C208.05160684473873,114.75316505143667,211.4000692287271,108.4609179847257,528.5001730718177,271.1522949618142 A594.0,594.0,0,0,0,549.7960510794586,224.85618118573788 C219.91842043178346,89.94247247429516,157.2922899022265,178.08114874212242,393.23072475556626,445.20287185530606 Z" fill="url(#d25)" fill-opacity="0.6" />
<text x="660.0" y="0" font-size="20" text-anchor="start" dominant-baseline="middle" transform="rotate(-1.257190)" font-family="Arial">ICD9 038</text>
<text x="660.0" y="0" font-size="20" text-anchor="start" dominant-baseline="middle" transform="rotate(-5.793601)" font-family="Arial">ICD9 041</text>
<text x="660.0" y="0" font-size="20" text-anchor="start" dominant-baseline="middle" transform="rotate(-44.523669)" font-family="Arial">ICD9 079</text>
<text x="660.0" y="0" font-size="20" text-anchor="start" dominant-baseline="middle" transform="rotate(-84.216247)" font-family="Arial">ICD9 250</text>
<text x="-660.0" y="0" font-size="20" text-anchor="end" dominant-baseline="middle" transform="rotate(88.445284)" font-family="Arial">ICD9 272</text>
<text x="-660.0" y="0" font-size="20" text-anchor="end" dominant-baseline="middle" transform="rotate(83.216046)" font-family="Arial">ICD9 276</text>
<text x="-660.0" y="0" font-size="20" text-anchor="end" dominant-baseline="middle" transform="rotate(78.603682)" font-family="Arial">ICD9 401</text>
<text x="-660.0" y="0" font-size="20" text-anchor="end" dominant-baseline="middle" transform="rotate(71.752925)" font-family="Arial">ICD9 403</text>
<text x="-660.0" y="0" font-size="20" text-anchor="end" dominant-baseline="middle" transform="rotate(64.800328)" font-family="Arial">ICD9 414</text>
<text x="-660.0" y="0" font-size="20" text-anchor="end" dominant-baseline="middle" transform="rotate(57.688993)" font-family="Arial">ICD9 427</text>
<text x="-660.0" y="0" font-size="20" text-anchor="end" dominant-baseline="middle" transform="rotate(48.973059)" font-family="Arial">ICD9 428</text>
<text x="-660.0000000000002" y="0" font-size="20" text-anchor="end" dominant-baseline="middle" transform="rotate(40.045924)" font-family="Arial">ICD9 434</text>
<text x="-660.0" y="0" font-size="20" text-anchor="end" dominant-baseline="middle" transform="rotate(30.208596)" font-family="Arial">ICD9 455</text>
<text x="-660.0000000000002" y="0" font-size="20" text-anchor="end" dominant-baseline="middle" transform="rotate(20.089962)" font-family="Arial">ICD9 458</text>
<text x="-660.0" y="0" font-size="20" text-anchor="end" dominant-baseline="middle" transform="rotate(14.264214)" font-family="Arial">ICD9 482</text>
<text x="-660.0" y="0" font-size="20" text-anchor="end" dominant-baseline="middle" transform="rotate(7.224664)" font-family="Arial">ICD9 486</text>
<text x="-660.0" y="0" font-size="20" text-anchor="end" dominant-baseline="middle" transform="rotate(-5.250468)" font-family="Arial">ICD9 493</text>
<text x="-660.0" y="0" font-size="20" text-anchor="end" dominant-baseline="middle" transform="rotate(-20.899864)" font-family="Arial">ICD9 496</text>
<text x="-660.0" y="0" font-size="20" text-anchor="end" dominant-baseline="middle" transform="rotate(-41.547652)" font-family="Arial">ICD9 511</text>
<text x="-660.0" y="0" font-size="20" text-anchor="end" dominant-baseline="middle" transform="rotate(-66.011786)" font-family="Arial">ICD9 518</text>
<text x="660.0" y="0" font-size="20" text-anchor="start" dominant-baseline="middle" transform="rotate(-284.486198)" font-family="Arial">ICD9 519</text>
<text x="660.0" y="0" font-size="20" text-anchor="start" dominant-baseline="middle" transform="rotate(-321.286758)" font-family="Arial">ICD9 533</text>
<text x="660.0" y="0" font-size="20" text-anchor="start" dominant-baseline="middle" transform="rotate(-335.687998)" font-family="Arial">ICD9 535</text>
<text x="660.0" y="0" font-size="20" text-anchor="start" dominant-baseline="middle" transform="rotate(-343.345256)" font-family="Arial">ICD9 585</text>
<text x="660.0" y="0" font-size="20" text-anchor="start" dominant-baseline="middle" transform="rotate(-349.967928)" font-family="Arial">ICD9 786</text>
<text x="660.0" y="0" font-size="20" text-anchor="start" dominant-baseline="middle" transform="rotate(-353.791061)" font-family="Arial">ICD9 788</text>
<text x="660.0" y="0" font-size="20" text-anchor="start" dominant-baseline="middle" transform="rotate(-357.040681)" font-family="Arial">ICD9 799</text>
</svg>