<?xml version="1.0" encoding="UTF-8"?>
<svg xmlns="http://www.w3.org/2000/svg" xmlns:xlink="http://www.w3.org/1999/xlink"
     width="2400.0" height="2400.0" viewBox="-1200 -1200 2400.0 2400.0">
<defs>
<linearGradient x1="599.9847819428555" y1="-4.273340260745243" x2="585.2483537980239" y2="132.22845524584693" gradientUnits="userSpaceOnUse" id="d0">
<stop offset="0" stop-color="#FFB09B" />
<stop offset="1" stop-color="#B2E779" />
</linearGradient>
<linearGradient x1="599.5231239610631" y1="-23.917019796952054" x2="597.187543235489" y2="-58.026185505864234" gradientUnits="userSpaceOnUse" id="d1">
<stop offset="0" stop-color="#FFB09B" />
<stop offset="1" stop-color="#FFB09B" />
</linearGradient>
<linearGradient x1="599.5231239610631" y1="-23.917019796952054" x2="-162.48349804805477" y2="577.5803951503789" gradientUnits="userSpaceOnUse" id="d2">
<stop offset="0" stop-color="#FFB09B" />
<stop offset="1" stop-color="#55F5FF" />
</linearGradient>
<linearGradient x1="586.6534071342551" y1="-125.84824153626451" x2="572.3585587393771" y2="-180.01577774679365" gradientUnits="userSpaceOnUse" id="d3">
<stop offset="0" stop-color="#FFB09B" />
<stop offset="1" stop-color="#CBCD84" />
</linearGradient>
<linearGradient x1="587.4394191885214" y1="-122.12669152749781" x2="550.8814146106139" y2="-237.7596833708544" gradientUnits="userSpaceOnUse" id="d4">
<stop offset="0" stop-color="#FFB09B" />
<stop offset="1" stop-color="#CBCD84" />
</linearGradient>
<linearGradient x1="587.7801988002575" y1="-120.4758809817543" x2="299.2458996011821" y2="-520.0498933485894" gradientUnits="userSpaceOnUse" id="d5">
<stop offset="0" stop-color="#FFB09B" />
<stop offset="1" stop-color="#FFBF74" />
</linearGradient>
<linearGradient x1="588.1499301038581" y1="-118.65774192536624" x2="174.38245813825097" y2="-574.0999549674788" gradientUnits="userSpaceOnUse" id="d6">
<stop offset="0" stop-color="#FFB09B" />
<stop offset="1" stop-color="#FFBF74" />
</linearGradient>
<linearGradient x1="588.5861331298133" y1="-116.4747349741291" x2="62.30372196318839" y2="-596.7564379456109" gradientUnits="userSpaceOnUse" id="d7">
<stop offset="0" stop-color="#FFB09B" />
<stop offset="1" stop-color="#FFADC9" />
</linearGradient>
<linearGradient x1="589.0219328257534" y1="-114.25043829331057" x2="26.82911661471843" y2="-599.3998652833297" gradientUnits="userSpaceOnUse" id="d8">
<stop offset="0" stop-color="#FFB09B" />
<stop offset="1" stop-color="#FFADC9" />
</linearGradient>
<linearGradient x1="589.7491601819264" y1="-110.43517584860564" x2="-238.2302827793789" y2="-550.6780659939682" gradientUnits="userSpaceOnUse" id="d9">
<stop offset="0" stop-color="#FFB09B" />
<stop offset="1" stop-color="#A6D8FF" />
</linearGradient>
<linearGradient x1="589.7491601819264" y1="-110.43517584860564" x2="-588.6592920604128" y2="116.1044265776878" gradientUnits="userSpaceOnUse" id="d10">
<stop offset="0" stop-color="#FFB09B" />
<stop offset="1" stop-color="#EAD55E" />
</linearGradient>
<linearGradient x1="590.0960867767259" y1="-108.56614744382676" x2="-414.0685403714621" y2="434.220271146623" gradientUnits="userSpaceOnUse" id="d11">
<stop offset="0" stop-color="#FFB09B" />
<stop offset="1" stop-color="#EAD55E" />
</linearGradient>
<linearGradient x1="590.5195728482097" y1="-106.23857154145088" x2="-373.78506936974685" y2="469.3449924269498" gradientUnits="userSpaceOnUse" id="d12">
<stop offset="0" stop-color="#FFB09B" />
<stop offset="1" stop-color="#55F5FF" />
</linearGradient>
<linearGradient x1="590.9861793691292" y1="-103.61146555608347" x2="-327.7940085346166" y2="502.54461291392596" gradientUnits="userSpaceOnUse" id="d13">
<stop offset="0" stop-color="#FFB09B" />
<stop offset="1" stop-color="#55F5FF" />
</linearGradient>
<linearGradient x1="591.6061448007003" y1="-100.01084658202237" x2="-300.00629377904437" y2="519.6116085048155" gradientUnits="userSpaceOnUse" id="d14">
<stop offset="0" stop-color="#FFB09B" />
<stop offset="1" stop-color="#55F5FF" />
</linearGradient>
<linearGradient x1="592.1391191023448" y1="-96.80528719392944" x2="-268.0953962293617" y2="536.7726320525494" gradientUnits="userSpaceOnUse" id="d15">
<stop offset="0" stop-color="#FFB09B" />
<stop offset="1" stop-color="#55F5FF" />
</linearGradient>
<linearGradient x1="592.4652679619211" y1="-94.78874542269831" x2="-244.43470756142125" y2="547.9522549815472" gradientUnits="userSpaceOnUse" id="d16">
<stop offset="0" stop-color="#FFB09B" />
<stop offset="1" stop-color="#55F5FF" />
</linearGradient>
<linearGradient x1="592.8110104548776" y1="-92.60186760247848" x2="-60.155230216907704" y2="596.9768406542677" gradientUnits="userSpaceOnUse" id="d17">
<stop offset="0" stop-color="#FFB09B" />
<stop offset="1" stop-color="#59F3D1" />
</linearGradient>
<linearGradient x1="593.1678640524204" y1="-90.28779017945516" x2="-3.3515344588122473" y2="599.9906392742902" gradientUnits="userSpaceOnUse" id="d18">
<stop offset="0" stop-color="#FFB09B" />
<stop offset="1" stop-color="#59F3D1" />
</linearGradient>
<linearGradient x1="593.4611814685595" y1="-88.33926697647802" x2="64.35327118257985" y2="596.5388977159002" gradientUnits="userSpaceOnUse" id="d19">
<stop offset="0" stop-color="#FFB09B" />
<stop offset="1" stop-color="#59F3D1" />
</linearGradient>
<linearGradient x1="593.7547532800448" y1="-86.34403834285908" x2="129.65776534436807" y2="585.8232360413035" gradientUnits="userSpaceOnUse" id="d20">
<stop offset="0" stop-color="#FFB09B" />
<stop offset="1" stop-color="#59F3D1" />
</linearGradient>
<linearGradient x1="594.2810118631351" y1="-82.64429162941796" x2="169.5276023053805" y2="575.5522496321153" gradientUnits="userSpaceOnUse" id="d21">
<stop offset="0" stop-color="#FFB09B" />
<stop offset="1" stop-color="#59F3D1" />
</linearGradient>
<linearGradient x1="594.5460745523544" y1="-80.71533456776453" x2="204.43814124017774" y2="564.0966640623406" gradientUnits="userSpaceOnUse" id="d22">
<stop offset="0" stop-color="#FFB09B" />
<stop offset="1" stop-color="#EDBBCE" />
</linearGradient>
<linearGradient x1="594.7660671697964" y1="-79.07797002562198" x2="274.07703659634734" y2="533.7431760786873" gradientUnits="userSpaceOnUse" id="d23">
<stop offset="0" stop-color="#FFB09B" />
<stop offset="1" stop-color="#EDBBCE" />
</linearGradient>
<linearGradient x1="595.0272587855951" y1="-77.08801010598485" x2="354.92604602720814" y2="483.76389060314546" gradientUnits="userSpaceOnUse" id="d24">
<stop offset="0" stop-color="#FFB09B" />
<stop offset="1" stop-color="#EDBBCE" />
</linearGradient>
<linearGradient x1="595.2714339487019" y1="-75.1792519559506" x2="375.3132472459459" y2="468.12387937564506" gradientUnits="userSpaceOnUse" id="d25">
<stop offset="0" stop-color="#FFB09B" />
<stop offset="1" stop-color="#85E49F" />
</linearGradient>
<linearGradient x1="595.4858600675066" y1="-73.46148963682971" x2="429.2131716293589" y2="419.25654830886833" gradientUnits="userSpaceOnUse" id="d26">
<stop offset="0" stop-color="#FFB09B" />
<stop offset="1" stop-color="#64CACC" />
</linearGradient>
<linearGradient x1="595.8004168261527" y1="-70.86510643315718" x2="448.6106774115514" y2="398.4325038351526" gradientUnits="userSpaceOnUse" id="d27">
<stop offset="0" stop-color="#FFB09B" />
<stop offset="1" stop-color="#64CACC" />
</linearGradient>
<linearGradient x1="596.2395308780771" y1="-67.07027522152161" x2="522.7340074574505" y2="294.5320991801643" gradientUnits="userSpaceOnUse" id="d28">
<stop offset="0" stop-color="#FFB09B" />
<stop offset="1" stop-color="#B2E779" />
</linearGradient>
<linearGradient x1="596.435059712432" y1="-65.30864832338561" x2="540.7268101846665" y2="260.0279153235583" gradientUnits="userSpaceOnUse" id="d29">
<stop offset="0" stop-color="#FFB09B" />
<stop offset="1" stop-color="#B2E779" />
</linearGradient>
<linearGradient x1="596.8175447178967" y1="-61.715624576775014" x2="583.4161415956381" y2="140.09141917211895" gradientUnits="userSpaceOnUse" id="d30">
<stop offset="0" stop-color="#FFB09B" />
<stop offset="1" stop-color="#B2E779" />
</linearGradient>
<linearGradient x1="597.0217805513051" y1="-59.7075669186849" x2="595.929656973414" y2="69.76993578576003" gradientUnits="userSpaceOnUse" id="d31">
<stop offset="0" stop-color="#FFB09B" />
<stop offset="1" stop-color="#B2E779" />
</linearGradient>
<linearGradient x1="579.9333298101252" y1="-153.8744064987436" x2="30.38994433377856" y2="599.2298818345008" gradientUnits="userSpaceOnUse" id="d32">
<stop offset="0" stop-color="#CBCD84" />
<stop offset="1" stop-color="#59F3D1" />
</linearGradient>
<linearGradient x1="563.1926580819404" y1="-206.91551387607103" x2="-169.3117314573651" y2="575.6157899075642" gradientUnits="userSpaceOnUse" id="d33">
<stop offset="0" stop-color="#CBCD84" />
<stop offset="1" stop-color="#55F5FF" />
</linearGradient>
<linearGradient x1="550.8814146106139" y1="-237.7596833708544" x2="-400.97096302499057" y2="-446.3432387869359" gradientUnits="userSpaceOnUse" id="d34">
<stop offset="0" stop-color="#CBCD84" />
<stop offset="1" stop-color="#A6D8FF" />
</linearGradient>
<linearGradient x1="538.5295056491651" y1="-264.5486184905637" x2="-596.4771414974055" y2="64.92318284776385" gradientUnits="userSpaceOnUse" id="d35">
<stop offset="0" stop-color="#CBCD84" />
<stop offset="1" stop-color="#EAD55E" />
</linearGradient>
<linearGradient x1="468.8281208070001" y1="-374.43316244768823" x2="510.85043256373905" y2="314.6932403936264" gradientUnits="userSpaceOnUse" id="d36">
<stop offset="0" stop-color="#CBCD84" />
<stop offset="1" stop-color="#B2E779" />
</linearGradient>
<linearGradient x1="429.6602925564523" y1="-418.79832019756697" x2="591.9771011370087" y2="97.79116386168948" gradientUnits="userSpaceOnUse" id="d37">
<stop offset="0" stop-color="#FFBF74" />
<stop offset="1" stop-color="#B2E779" />
</linearGradient>
<linearGradient x1="390.8717673397078" y1="-455.21342411744996" x2="269.5525405789508" y2="-536.0423750669653" gradientUnits="userSpaceOnUse" id="d38">
<stop offset="0" stop-color="#FFBF74" />
<stop offset="1" stop-color="#FFBF74" />
</linearGradient>
<linearGradient x1="416.9048948271108" y1="-431.49775047987873" x2="-533.4434786545354" y2="-274.65988982912717" gradientUnits="userSpaceOnUse" id="d39">
<stop offset="0" stop-color="#FFBF74" />
<stop offset="1" stop-color="#A6D8FF" />
</linearGradient>
<linearGradient x1="326.11311417655253" y1="-503.6370089281275" x2="-365.59935950734877" y2="-475.7489971905525" gradientUnits="userSpaceOnUse" id="d40">
<stop offset="0" stop-color="#FFBF74" />
<stop offset="1" stop-color="#A6D8FF" />
</linearGradient>
<linearGradient x1="214.6501347334786" y1="-560.2903886904535" x2="-599.9164630583143" y2="-10.011860546485574" gradientUnits="userSpaceOnUse" id="d41">
<stop offset="0" stop-color="#FFBF74" />
<stop offset="1" stop-color="#EAD55E" />
</linearGradient>
<linearGradient x1="214.6501347334786" y1="-560.2903886904535" x2="-172.71177029900133" y2="574.6047723437258" gradientUnits="userSpaceOnUse" id="d42">
<stop offset="0" stop-color="#FFBF74" />
<stop offset="1" stop-color="#55F5FF" />
</linearGradient>
<linearGradient x1="227.83854160655852" y1="-555.0581942090365" x2="299.2409875715302" y2="520.052719786384" gradientUnits="userSpaceOnUse" id="d43">
<stop offset="0" stop-color="#FFBF74" />
<stop offset="1" stop-color="#EDBBCE" />
</linearGradient>
<linearGradient x1="236.01165480173665" y1="-551.6325759033325" x2="470.00955547228574" y2="372.94908200013623" gradientUnits="userSpaceOnUse" id="d44">
<stop offset="0" stop-color="#FFBF74" />
<stop offset="1" stop-color="#B2E779" />
</linearGradient>
<linearGradient x1="252.2676715009773" y1="-544.3905049828433" x2="570.2383186860599" y2="186.62331017880817" gradientUnits="userSpaceOnUse" id="d45">
<stop offset="0" stop-color="#FFBF74" />
<stop offset="1" stop-color="#B2E779" />
</linearGradient>
<linearGradient x1="171.94107074476116" y1="-574.8358619563893" x2="-172.71177029900133" y2="574.6047723437258" gradientUnits="userSpaceOnUse" id="d46">
<stop offset="0" stop-color="#FFBF74" />
<stop offset="1" stop-color="#55F5FF" />
</linearGradient>
<linearGradient x1="171.94107074476116" y1="-574.8358619563893" x2="395.7237490965626" y2="451.0019006622486" gradientUnits="userSpaceOnUse" id="d47">
<stop offset="0" stop-color="#FFBF74" />
<stop offset="1" stop-color="#64CACC" />
</linearGradient>
<linearGradient x1="136.641809467985" y1="-584.2336997343742" x2="-207.09519988889815" y2="-563.1266093721529" gradientUnits="userSpaceOnUse" id="d48">
<stop offset="0" stop-color="#FFBF74" />
<stop offset="1" stop-color="#FFBAF6" />
</linearGradient>
<linearGradient x1="138.9310522931222" y1="-583.6935520534091" x2="-174.26857526476894" y2="574.134534473574" gradientUnits="userSpaceOnUse" id="d49">
<stop offset="0" stop-color="#FFBF74" />
<stop offset="1" stop-color="#55F5FF" />
</linearGradient>
<linearGradient x1="138.9310522931222" y1="-583.6935520534091" x2="-32.8742669922394" y2="599.0987252279235" gradientUnits="userSpaceOnUse" id="d50">
<stop offset="0" stop-color="#FFBF74" />
<stop offset="1" stop-color="#59F3D1" />
</linearGradient>
<linearGradient x1="141.73583071401515" y1="-583.0188284196386" x2="598.3005285744051" y2="45.12734766843009" gradientUnits="userSpaceOnUse" id="d51">
<stop offset="0" stop-color="#FFBF74" />
<stop offset="1" stop-color="#B2E779" />
</linearGradient>
<linearGradient x1="88.99133200007755" y1="-593.3637525404226" x2="350.10410466831553" y2="487.26493398806895" gradientUnits="userSpaceOnUse" id="d52">
<stop offset="0" stop-color="#FFBF74" />
<stop offset="1" stop-color="#EDBBCE" />
</linearGradient>
<linearGradient x1="62.30372196318839" y1="-596.7564379456109" x2="-183.24961432293378" y2="571.3314089479906" gradientUnits="userSpaceOnUse" id="d53">
<stop offset="0" stop-color="#FFADC9" />
<stop offset="1" stop-color="#55F5FF" />
</linearGradient>
<linearGradient x1="22.247396191113097" y1="-599.5874026050878" x2="578.8615550368344" y2="157.8584812429728" gradientUnits="userSpaceOnUse" id="d54">
<stop offset="0" stop-color="#FFADC9" />
<stop offset="1" stop-color="#B2E779" />
</linearGradient>
<linearGradient x1="-9.2709249039578" y1="-599.9283706838885" x2="-181.7637428927107" y2="-571.8058602092432" gradientUnits="userSpaceOnUse" id="d55">
<stop offset="0" stop-color="#FFADC9" />
<stop offset="1" stop-color="#FFBAF6" />
</linearGradient>
<linearGradient x1="4.2524615573994184" y1="-599.9849302863388" x2="-185.27473591116095" y2="570.6779058567535" gradientUnits="userSpaceOnUse" id="d56">
<stop offset="0" stop-color="#FFADC9" />
<stop offset="1" stop-color="#55F5FF" />
</linearGradient>
<linearGradient x1="-126.33301724327288" y1="-586.5492040351013" x2="-483.74213414243565" y2="354.9556981586882" gradientUnits="userSpaceOnUse" id="d57">
<stop offset="0" stop-color="#FFBAF6" />
<stop offset="1" stop-color="#EAD55E" />
</linearGradient>
<linearGradient x1="-238.2302827793789" y1="-550.6780659939682" x2="-188.48749776207976" y2="569.6248442504856" gradientUnits="userSpaceOnUse" id="d58">
<stop offset="0" stop-color="#A6D8FF" />
<stop offset="1" stop-color="#55F5FF" />
</linearGradient>
<linearGradient x1="-285.216497304865" y1="-527.8745586454645" x2="568.4334280695177" y2="192.05061273824774" gradientUnits="userSpaceOnUse" id="d59">
<stop offset="0" stop-color="#A6D8FF" />
<stop offset="1" stop-color="#B2E779" />
</linearGradient>
<linearGradient x1="-300.92202093758806" y1="-519.0818214066428" x2="169.5276023053805" y2="575.5522496321153" gradientUnits="userSpaceOnUse" id="d60">
<stop offset="0" stop-color="#A6D8FF" />
<stop offset="1" stop-color="#59F3D1" />
</linearGradient>
<linearGradient x1="-433.91095230289926" y1="-414.39267062967116" x2="-191.18293883104297" y2="568.725842475903" gradientUnits="userSpaceOnUse" id="d61">
<stop offset="0" stop-color="#A6D8FF" />
<stop offset="1" stop-color="#55F5FF" />
</linearGradient>
<linearGradient x1="-400.97096302499057" y1="-446.3432387869359" x2="250.92327453058638" y2="545.0114772175426" gradientUnits="userSpaceOnUse" id="d62">
<stop offset="0" stop-color="#A6D8FF" />
<stop offset="1" stop-color="#EDBBCE" />
</linearGradient>
<linearGradient x1="-533.4434786545354" y1="-274.65988982912717" x2="-594.8536080978729" y2="-78.41673885684318" gradientUnits="userSpaceOnUse" id="d63">
<stop offset="0" stop-color="#A6D8FF" />
<stop offset="1" stop-color="#EAD55E" />
</linearGradient>
<linearGradient x1="-596.4771414974055" y1="64.92318284776385" x2="395.7237490965626" y2="451.0019006622486" gradientUnits="userSpaceOnUse" id="d64">
<stop offset="0" stop-color="#EAD55E" />
<stop offset="1" stop-color="#64CACC" />
</linearGradient>
<linearGradient x1="-593.2736438348956" y1="89.59008611931075" x2="-194.3230830821878" y2="567.660584664316" gradientUnits="userSpaceOnUse" id="d65">
<stop offset="0" stop-color="#EAD55E" />
<stop offset="1" stop-color="#55F5FF" />
</linearGradient>
<linearGradient x1="-587.1406661270936" y1="123.55500062657464" x2="-196.43038970342525" y2="566.9348304708051" gradientUnits="userSpaceOnUse" id="d66">
<stop offset="0" stop-color="#EAD55E" />
<stop offset="1" stop-color="#55F5FF" />
</linearGradient>
<linearGradient x1="-579.5899931427946" y1="155.16262387809547" x2="-454.85924763846634" y2="391.28386733644976" gradientUnits="userSpaceOnUse" id="d67">
<stop offset="0" stop-color="#EAD55E" />
<stop offset="1" stop-color="#EAD55E" />
</linearGradient>
<linearGradient x1="-531.9031615019979" y1="277.63109837368626" x2="-199.85224275646522" y2="565.7376433164147" gradientUnits="userSpaceOnUse" id="d68">
<stop offset="0" stop-color="#EAD55E" />
<stop offset="1" stop-color="#55F5FF" />
</linearGradient>
<linearGradient x1="-454.85924763846634" y1="391.28386733644976" x2="-203.5439675380824" y2="564.4199263658717" gradientUnits="userSpaceOnUse" id="d69">
<stop offset="0" stop-color="#EAD55E" />
<stop offset="1" stop-color="#55F5FF" />
</linearGradient>
<linearGradient x1="-428.67215213988686" y1="419.8097021029382" x2="-342.7205893319148" y2="492.48613954910957" gradientUnits="userSpaceOnUse" id="d70">
<stop offset="0" stop-color="#EAD55E" />
<stop offset="1" stop-color="#55F5FF" />
</linearGradient>
<linearGradient x1="-430.54361979644614" y1="417.89016673352484" x2="-207.7828622617077" y2="562.8732380832581" gradientUnits="userSpaceOnUse" id="d71">
<stop offset="0" stop-color="#EAD55E" />
<stop offset="1" stop-color="#55F5FF" />
</linearGradient>
<linearGradient x1="-393.76670596908355" y1="452.7115872940048" x2="-217.80904412036918" y2="559.0699601117656" gradientUnits="userSpaceOnUse" id="d72">
<stop offset="0" stop-color="#EAD55E" />
<stop offset="1" stop-color="#55F5FF" />
</linearGradient>
<linearGradient x1="-288.68001919633815" y1="525.9884471324459" x2="568.4334280695177" y2="192.05061273824774" gradientUnits="userSpaceOnUse" id="d73">
<stop offset="0" stop-color="#55F5FF" />
<stop offset="1" stop-color="#B2E779" />
</linearGradient>
<linearGradient x1="-119.11186339061861" y1="588.0581297793736" x2="-87.2537758476901" y2="593.6217470749543" gradientUnits="userSpaceOnUse" id="d74">
<stop offset="0" stop-color="#55F5FF" />
<stop offset="1" stop-color="#59F3D1" />
</linearGradient>
<linearGradient x1="-121.39160105279869" y1="587.5917623604319" x2="-60.155230216907704" y2="596.9768406542677" gradientUnits="userSpaceOnUse" id="d75">
<stop offset="0" stop-color="#55F5FF" />
<stop offset="1" stop-color="#59F3D1" />
</linearGradient>
<linearGradient x1="-123.31839124903601" y1="587.1904072613496" x2="30.38994433377856" y2="599.2298818345008" gradientUnits="userSpaceOnUse" id="d76">
<stop offset="0" stop-color="#55F5FF" />
<stop offset="1" stop-color="#59F3D1" />
</linearGradient>
<linearGradient x1="-126.18151572562151" y1="586.5818144889805" x2="101.75828379432761" y2="591.3080852476423" gradientUnits="userSpaceOnUse" id="d77">
<stop offset="0" stop-color="#55F5FF" />
<stop offset="1" stop-color="#59F3D1" />
</linearGradient>
<linearGradient x1="-128.73101049120723" y1="586.0275820624083" x2="129.65776534436807" y2="585.8232360413035" gradientUnits="userSpaceOnUse" id="d78">
<stop offset="0" stop-color="#55F5FF" />
<stop offset="1" stop-color="#59F3D1" />
</linearGradient>
<linearGradient x1="-131.40571205209346" y1="585.4336331644112" x2="204.43814124017774" y2="564.0966640623406" gradientUnits="userSpaceOnUse" id="d79">
<stop offset="0" stop-color="#55F5FF" />
<stop offset="1" stop-color="#EDBBCE" />
</linearGradient>
<linearGradient x1="-134.86272734848657" y1="584.646940274323" x2="240.45443012064555" y2="549.7105302205476" gradientUnits="userSpaceOnUse" id="d80">
<stop offset="0" stop-color="#55F5FF" />
<stop offset="1" stop-color="#EDBBCE" />
</linearGradient>
<linearGradient x1="-136.75046611293823" y1="584.2082762319395" x2="274.07703659634734" y2="533.7431760786873" gradientUnits="userSpaceOnUse" id="d81">
<stop offset="0" stop-color="#55F5FF" />
<stop offset="1" stop-color="#EDBBCE" />
</linearGradient>
<linearGradient x1="-146.9396497134094" y1="581.7290944607297" x2="299.2409875715302" y2="520.052719786384" gradientUnits="userSpaceOnUse" id="d82">
<stop offset="0" stop-color="#55F5FF" />
<stop offset="1" stop-color="#EDBBCE" />
</linearGradient>
<linearGradient x1="-148.6581843845653" y1="581.2923053124689" x2="350.10410466831553" y2="487.26493398806895" gradientUnits="userSpaceOnUse" id="d83">
<stop offset="0" stop-color="#55F5FF" />
<stop offset="1" stop-color="#EDBBCE" />
</linearGradient>
<linearGradient x1="-151.02980764414755" y1="580.6806327086962" x2="429.2131716293589" y2="419.25654830886833" gradientUnits="userSpaceOnUse" id="d84">
<stop offset="0" stop-color="#55F5FF" />
<stop offset="1" stop-color="#64CACC" />
</linearGradient>
<linearGradient x1="-154.37364397934854" y1="579.800636464412" x2="540.7268101846665" y2="260.0279153235583" gradientUnits="userSpaceOnUse" id="d85">
<stop offset="0" stop-color="#55F5FF" />
<stop offset="1" stop-color="#B2E779" />
</linearGradient>
<linearGradient x1="-156.12048202399978" y1="579.3327153653537" x2="578.8615550368344" y2="157.8584812429728" gradientUnits="userSpaceOnUse" id="d86">
<stop offset="0" stop-color="#55F5FF" />
<stop offset="1" stop-color="#B2E779" />
</linearGradient>
<linearGradient x1="403.33290698043527" y1="444.2100473275133" x2="554.7739255356138" y2="228.52984826014585" gradientUnits="userSpaceOnUse" id="d87">
<stop offset="0" stop-color="#64CACC" />
<stop offset="1" stop-color="#B2E779" />
</linearGradient>
</defs>
<rect x="-1200" y="-1200" width="2400.0" height="2400.0" fill="#ffffff" fill-opacity="0.05" />
<path d="M600.0,-0.0 A600,600,0,0,0,599.9847819428555,-4.273340260745243 L641.9837166788554,-4.572474078997411 A642.0,642.0,0,0,1,642.0,-0.0 Z" fill="#FFB09B" fill-opacity="0.9" />
<path d="M599.5866280612037,-22.268261050110052 A600,600,0,0,0,598.8670166492208,-36.85507250924815 L640.7877078146663,-39.434927584895526 A642.0,642.0,0,0,1,641.557692025488,-23.827039323617758 Z" fill="#FFB09B" fill-opacity="0.9" />
<path d="M597.4920603679699,-54.801804689610044 A600,600,0,0,0,586.165664168798,-128.10079683418041 L627.1972606606139,-137.06785261257306 A642.0,642.0,0,0,1,639.3165045937278,-58.63793101788275 Z" fill="#FFB09B" fill-opacity="0.9" />
<path d="M582.0594619250402,-145.6254880971484 A600,600,0,0,0,579.9333298101252,-153.8744064987436 L620.528662896834,-164.64561495365567 A642.0,642.0,0,0,1,622.8036242597931,-155.8192722639488 Z" fill="#CBCD84" fill-opacity="0.9" />
<path d="M575.0568395925814,-171.20055852067821 A600,600,0,0,0,563.1926580819404,-206.91551387607103 L602.6161441476763,-221.39959984739602 A642.0,642.0,0,0,1,615.3108183640621,-183.1845976171257 Z" fill="#CBCD84" fill-opacity="0.9" />
<path d="M556.7327060546163,-223.7156543675568 A600,600,0,0,0,546.2224536859522,-248.27611864474153 L584.458025443969,-265.65544694987346 A642.0,642.0,0,0,1,595.7039954784394,-239.37575017328578 Z" fill="#CBCD84" fill-opacity="0.9" />
<path d="M538.5295056491651,-264.5486184905637 A600,600,0,0,0,529.9934065648254,-281.2596469417747 L567.0929450243632,-300.94782222769896 A642.0,642.0,0,0,1,576.2265710446067,-283.06702178490315 Z" fill="#CBCD84" fill-opacity="0.9" />
<path d="M521.3184036218162,-297.0305069268158 A600,600,0,0,0,468.8281208070001,-374.43316244768823 L501.6460892634902,-400.6434838190264 A642.0,642.0,0,0,1,557.8106918753433,-317.8226424116929 Z" fill="#CBCD84" fill-opacity="0.9" />
<path d="M457.3858539750906,-388.327414153929 A600,600,0,0,0,429.6602925564523,-418.79832019756697 L459.736513035404,-448.1142026113967 A642.0,642.0,0,0,1,489.40286375334694,-415.5103331447041 Z" fill="#FFBF74" fill-opacity="0.9" />
<path d="M416.9048948271108,-431.49775047987873 A600,600,0,0,0,341.0732182844485,-493.6284632890297 L364.9483435643599,-528.1824557192618 A642.0,642.0,0,0,1,446.0882374650086,-461.7025930134703 Z" fill="#FFBF74" fill-opacity="0.9" />
<path d="M326.11311417655253,-503.6370089281275 A600,600,0,0,0,320.4309533396905,-507.27113474138963 L342.8611200734689,-542.780114173287 A642.0,642.0,0,0,1,348.94103216891125,-538.8915995530965 Z" fill="#FFBF74" fill-opacity="0.9" />
<path d="M305.07091880005237,-516.6543665764298 A600,600,0,0,0,299.2458996011821,-520.0498933485894 L320.19311257326484,-556.4533858829907 A642.0,642.0,0,0,1,326.42588311605607,-552.8201722367799 Z" fill="#FFBF74" fill-opacity="0.9" />
<path d="M283.51209236436216,-528.7919188898233 A600,600,0,0,0,198.54273609681724,-566.1985358009941 L212.44072762359446,-605.8324333070638 A642.0,642.0,0,0,1,303.3579388298675,-565.8073532121109 Z" fill="#FFBF74" fill-opacity="0.9" />
<path d="M181.4699902709185,-571.8991542493071 A600,600,0,0,0,165.69881691213337,-576.6661964030138 L177.29773409598272,-617.0328301512249 A642.0,642.0,0,0,1,194.1728895898828,-611.9320950467586 Z" fill="#FFBF74" fill-opacity="0.9" />
<path d="M148.32686702571118,-581.3769349727739 A600,600,0,0,0,130.1145336940756,-585.7219546180365 L139.2225510526609,-626.7224914412991 A642.0,642.0,0,0,1,158.70974771751096,-622.0733204208682 Z" fill="#FFBF74" fill-opacity="0.9" />
<path d="M112.48696353679554,-589.3612500277496 A600,600,0,0,0,88.99133200007755,-593.3637525404226 L95.22072524008298,-634.8992152182523 A642.0,642.0,0,0,1,120.36105098437123,-630.6165375296921 Z" fill="#FFBF74" fill-opacity="0.9" />
<path d="M71.15304634456501,-595.7660983942341 A600,600,0,0,0,53.831934724779124,-597.5802229021532 L57.600170155513666,-639.4108385053039 A642.0,642.0,0,0,1,76.13375958868457,-637.4697252818305 Z" fill="#FFADC9" fill-opacity="0.9" />
<path d="M35.882994473857316,-598.9260477785126 A600,600,0,0,0,22.247396191113097,-599.5874026050878 L23.804713924491015,-641.5585207874441 A642.0,642.0,0,0,1,38.39480408702733,-640.8508711230086 Z" fill="#FFADC9" fill-opacity="0.9" />
<path d="M4.2524615573994184,-599.9849302863388 A600,600,0,0,0,-108.68233488071625,-590.0746987330298 L-116.2900983223664,-631.3799276443419 A642.0,642.0,0,0,1,4.550133866417378,-641.9838754063826 Z" fill="#FFADC9" fill-opacity="0.9" />
<path d="M-126.33301724327288,-586.5492040351013 A600,600,0,0,0,-140.34933389239123,-583.354150131772 L-150.17378726485862,-624.1889406409961 A642.0,642.0,0,0,1,-135.17632845030198,-627.6076483175584 Z" fill="#FFBAF6" fill-opacity="0.9" />
<path d="M-157.78418095719184,-578.8818119786354 A600,600,0,0,0,-207.09519988889815,-563.1266093721529 L-221.59186388112104,-602.5454720282036 A642.0,642.0,0,0,1,-168.82907362419527,-619.4035388171399 Z" fill="#FFBAF6" fill-opacity="0.9" />
<path d="M-223.89327836365456,-556.661297292685 A600,600,0,0,0,-248.6182733143737,-546.0668037650515 L-266.02155244637987,-584.2914800286052 A642.0,642.0,0,0,1,-239.5658078491104,-595.627588103173 Z" fill="#A6D8FF" fill-opacity="0.9" />
<path d="M-264.88595040490804,-538.3636626650136 A600,600,0,0,0,-285.216497304865,-527.8745586454645 L-305.1816521162056,-564.825777750647 A642.0,642.0,0,0,1,-283.42796693325164,-576.0491190515646 Z" fill="#A6D8FF" fill-opacity="0.9" />
<path d="M-300.92202093758806,-519.0818214066428 A600,600,0,0,0,-328.94076625847896,-501.7947511615528 L-351.9666198965725,-536.9203837428615 A642.0,642.0,0,0,1,-321.98656240321924,-555.4175489051079 Z" fill="#A6D8FF" fill-opacity="0.9" />
<path d="M-343.84433857515796,-491.7022176376797 A600,600,0,0,0,-442.9648010633184,-404.70011739426855 L-473.97233713775074,-433.02912561186736 A642.0,642.0,0,0,1,-367.913442275419,-526.1213728723174 Z" fill="#A6D8FF" fill-opacity="0.9" />
<path d="M-454.90466430570314,-391.2310652196673 A600,600,0,0,0,-585.0164465368349,-133.25073088510484 L-625.9675977944133,-142.5782820470622 A642.0,642.0,0,0,1,-486.7479908071024,-418.61723978504403 Z" fill="#A6D8FF" fill-opacity="0.9" />
<path d="M-588.7501312048529,-115.64291161272499 A600,600,0,0,0,-595.693990163888,71.75423390034693 L-637.3925694753601,76.77703027337122 A642.0,642.0,0,0,1,-629.9626403891926,-123.73791542561574 Z" fill="#EAD55E" fill-opacity="0.9" />
<path d="M-593.2736438348956,89.59008611931075 A600,600,0,0,0,-591.8770255965622,98.39505358993574 L-633.3084173883217,105.28270734123124 A642.0,642.0,0,0,1,-634.8027989033383,95.86139214766251 Z" fill="#EAD55E" fill-opacity="0.9" />
<path d="M-588.6592920604128,116.1044265776878 A600,600,0,0,0,-583.983377722411,137.70771417725277 L-624.8622141629797,147.34725416966046 A642.0,642.0,0,0,1,-629.8654425046417,124.23173643812596 Z" fill="#EAD55E" fill-opacity="0.9" />
<path d="M-579.5899931427946,155.16262387809547 A600,600,0,0,0,-539.9915066980021,261.5514723606454 L-577.7909121668623,279.86007542589056 A642.0,642.0,0,0,1,-620.1612926627903,166.02400754956216 Z" fill="#EAD55E" fill-opacity="0.9" />
<path d="M-531.9031615019979,277.63109837368626 A600,600,0,0,0,-524.4672211052831,291.43461356898234 L-561.1799265826529,311.83503651881114 A642.0,642.0,0,0,1,-569.1363828071378,297.0652752598443 Z" fill="#EAD55E" fill-opacity="0.9" />
<path d="M-515.4895015457009,307.03513446536516 A600,600,0,0,0,-483.74213414243565,354.9556981586882 L-517.6040835324062,379.8025970297964 A642.0,642.0,0,0,1,-551.5737666539001,328.5275938779407 Z" fill="#EAD55E" fill-opacity="0.9" />
<path d="M-472.8773927918829,369.30606735653726 A600,600,0,0,0,-442.8847142788253,404.78775902707736 L-473.8866442783431,433.1229021589728 A642.0,642.0,0,0,1,-505.9788102873148,395.1574920714949 Z" fill="#EAD55E" fill-opacity="0.9" />
<path d="M-430.54361979644614,417.89016673352484 A600,600,0,0,0,-426.90687773379517,421.60469369254236 L-456.79035917516086,451.11702225102033 A642.0,642.0,0,0,1,-460.6816731821974,447.1424784048716 Z" fill="#EAD55E" fill-opacity="0.9" />
<path d="M-414.0685403714621,434.220271146623 A600,600,0,0,0,-407.16883474897446,440.69665304964855 L-435.6706531814027,471.54541876312396 A642.0,642.0,0,0,1,-443.0533381974645,464.61569012688665 Z" fill="#EAD55E" fill-opacity="0.9" />
<path d="M-393.76670596908355,452.7115872940048 A600,600,0,0,0,-387.6951165187811,457.92193289630575 L-414.8337746750958,489.9764681990472 A642.0,642.0,0,0,1,-421.3303753869194,484.40139840458517 Z" fill="#EAD55E" fill-opacity="0.9" />
<path d="M-373.78506936974685,469.3449924269498 A600,600,0,0,0,-365.37759115190386,475.91933758151936 L-390.9540225325371,509.2336912122257 A642.0,642.0,0,0,1,-399.95002422562914,502.1991418968363 Z" fill="#55F5FF" fill-opacity="0.9" />
<path d="M-350.9377449802111,486.66487355078783 A600,600,0,0,0,-342.7205893319148,492.48613954910957 L-366.7110305851489,526.9601693175473 A642.0,642.0,0,0,1,-375.5033871288259,520.731414699343 Z" fill="#55F5FF" fill-opacity="0.9" />
<path d="M-327.7940085346166,502.54461291392596 A600,600,0,0,0,-315.4573111798779,510.37896197155476 L-337.5393229624693,546.1054893095636 A642.0,642.0,0,0,1,-350.7395891320398,537.7227358179008 Z" fill="#55F5FF" fill-opacity="0.9" />
<path d="M-300.00629377904437,519.6116085048155 A600,600,0,0,0,-284.0755259424332,528.4894469717725 L-303.96081275840356,565.4837082597966 A642.0,642.0,0,0,1,-321.0067343435775,555.9844211001526 Z" fill="#55F5FF" fill-opacity="0.9" />
<path d="M-268.0953962293617,536.7726320525494 A600,600,0,0,0,-260.7608221676996,540.3737536394837 L-279.0140797194386,578.1999163942476 A642.0,642.0,0,0,1,-286.86207396541704,574.3467162962279 Z" fill="#55F5FF" fill-opacity="0.9" />
<path d="M-244.43470756142125,547.9522549815472 A600,600,0,0,0,-236.3204492967373,551.500358335503 L-252.86288074750894,590.1053834189883 A642.0,642.0,0,0,1,-261.54513709072074,586.3089128302555 Z" fill="#55F5FF" fill-opacity="0.9" />
<path d="M-219.6715839600005,558.340751871565 A600,600,0,0,0,-116.29877863225387,588.6209256292593 L-124.43969313651165,629.8243904233075 A642.0,642.0,0,0,1,-235.04859483720054,597.4246045025745 Z" fill="#55F5FF" fill-opacity="0.9" />
<path d="M-98.59046901292962,591.8445061161002 A600,600,0,0,0,-87.2537758476901,593.6217470749543 L-93.3615401570284,635.1752693702011 A642.0,642.0,0,0,1,-105.4918018438347,633.2736215442272 Z" fill="#59F3D1" fill-opacity="0.9" />
<path d="M-69.40853335869245,595.9718579740114 A600,600,0,0,0,-50.82974061545533,597.8430709383236 L-54.38782245853721,639.6920859040064 A642.0,642.0,0,0,1,-74.26713069380092,637.6898880321922 Z" fill="#59F3D1" fill-opacity="0.9" />
<path d="M-32.8742669922394,599.0987252279235 A600,600,0,0,0,-21.347045723264298,599.6201327831553 L-22.8413389238928,641.5935420779763 A642.0,642.0,0,0,1,-35.17546568169616,641.0356359938783 Z" fill="#59F3D1" fill-opacity="0.9" />
<path d="M-3.3515344588122473,599.9906392742902 A600,600,0,0,0,4.53031475111107,599.9828966297755 L4.8474367836888455,641.9816993938598 A642.0,642.0,0,0,1,-3.586141870929105,641.9899840234905 Z" fill="#59F3D1" fill-opacity="0.9" />
<path d="M22.525063359719116,599.577035518073 A600,600,0,0,0,72.36752598858052,595.619795828087 L77.43325280778116,637.3131815360532 A642.0,642.0,0,0,1,24.101817794899457,641.5474280043381 Z" fill="#59F3D1" fill-opacity="0.9" />
<path d="M90.20087675058835,593.1810868810849 A600,600,0,0,0,101.75828379432761,591.3080852476423 L108.88136365993054,632.6996512149774 A642.0,642.0,0,0,1,96.51493812312954,634.7037629627608 Z" fill="#59F3D1" fill-opacity="0.9" />
<path d="M119.44907779164234,587.9897259431717 A600,600,0,0,0,144.21080365947674,582.4115762138385 L154.30555991564012,623.1803865488073 A642.0,642.0,0,0,1,127.81051323705731,629.1490067591938 Z" fill="#59F3D1" fill-opacity="0.9" />
<path d="M161.61564021705675,577.8238354699733 A600,600,0,0,0,176.98410172582538,573.3032598340103 L189.37298884663318,613.4344880223911 A642.0,642.0,0,0,1,172.92873503225073,618.2715039528715 Z" fill="#59F3D1" fill-opacity="0.9" />
<path d="M194.10098289952563,567.7365660563339 A600,600,0,0,0,210.63849332249674,561.8108446183898 L225.38318785507153,601.137603741677 A642.0,642.0,0,0,1,207.68805170249243,607.4781256802773 Z" fill="#EDBBCE" fill-opacity="0.9" />
<path d="M227.39551041285281,555.2398417297503 A600,600,0,0,0,250.92327453058638,545.0114772175426 L268.48790374772744,583.1622806227706 A642.0,642.0,0,0,1,243.3131961417525,594.1066306508328 Z" fill="#EDBBCE" fill-opacity="0.9" />
<path d="M267.15825940069544,537.2396713143871 A600,600,0,0,0,281.19387671467473,530.0283046198309 L300.877448084702,567.1302859432191 A642.0,642.0,0,0,1,285.85933755874413,574.8464483063942 Z" fill="#EDBBCE" fill-opacity="0.9" />
<path d="M296.9658130787145,521.355258784735 A600,600,0,0,0,329.4259342382696,501.47637417055176 L352.4857496349485,536.5797203624904 A642.0,642.0,0,0,1,317.75341999422454,557.8501268996665 Z" fill="#EDBBCE" fill-opacity="0.9" />
<path d="M344.3197383686338,491.3694310493435 A600,600,0,0,0,361.102759032522,479.1709480123982 L386.37995216479857,512.7129143732661 A642.0,642.0,0,0,1,368.4221200544382,525.7652912227976 Z" fill="#EDBBCE" fill-opacity="0.9" />
<path d="M375.3132472459459,468.12387937564506 A600,600,0,0,0,380.69057869850064,463.7614508453681 L407.3389192073957,496.2247524045439 A642.0,642.0,0,0,1,401.5851745531621,500.89255093194026 Z" fill="#85E49F" fill-opacity="0.9" />
<path d="M394.4300374787499,452.1337695135279 A600,600,0,0,0,409.33617701702894,438.68427619996083 L437.989709408221,469.3921755339581 A642.0,642.0,0,0,1,422.04014010226246,483.7831333794749 Z" fill="#64CACC" fill-opacity="0.9" />
<path d="M422.31054384764053,426.2086397002178 A600,600,0,0,0,436.4576354974041,411.7095243202604 L467.0096699822224,440.5291910226787 A642.0,642.0,0,0,1,451.8722819169754,456.04324447923307 Z" fill="#64CACC" fill-opacity="0.9" />
<path d="M448.6106774115514,398.4325038351526 A600,600,0,0,0,458.6112727700141,386.879439216234 L490.71406186391516,413.9609999613704 A642.0,642.0,0,0,1,480.01342483036007,426.3227791036133 Z" fill="#64CACC" fill-opacity="0.9" />
<path d="M470.00955547228574,372.94908200013623 A600,600,0,0,0,526.1777141920137,288.3348974502871 L563.0101541854547,308.5183402718072 A642.0,642.0,0,0,1,502.91022435534575,399.0555177401458 Z" fill="#B2E779" fill-opacity="0.9" />
<path d="M534.589701453449,272.42219274484995 A600,600,0,0,0,546.8331051116387,246.92823887511014 L585.1114224694535,264.2132155963679 A642.0,642.0,0,0,1,572.0109805551905,291.49174623698946 Z" fill="#B2E779" fill-opacity="0.9" />
<path d="M553.9937847085824,230.41459698608676 A600,600,0,0,0,554.7739255356138,228.52984826014585 L593.6081003231068,244.5269376383561 A642.0,642.0,0,0,1,592.7733496381833,246.54361877511286 Z" fill="#B2E779" fill-opacity="0.9" />
<path d="M561.3791631019445,211.78629614533685 A600,600,0,0,0,571.7127441880332,182.05641469881954 L611.7326362811956,194.8003637277369 A642.0,642.0,0,0,1,600.6757045190807,226.61133687551043 Z" fill="#B2E779" fill-opacity="0.9" />
<path d="M576.9163659718389,164.82568572236306 A600,600,0,0,0,588.7774365447092,115.50381039533258 L629.9918571028388,123.58907712300586 A642.0,642.0,0,0,1,617.3005115898677,176.3634837229285 Z" fill="#B2E779" fill-opacity="0.9" />
<path d="M591.9771011370087,97.79116386168948 A600,600,0,0,0,593.5687246168086,87.61374981574048 L635.1185353399852,93.74671230284231 A642.0,642.0,0,0,1,633.4154982165994,104.63654533200776 Z" fill="#B2E779" fill-opacity="0.9" />
<path d="M595.929656973414,69.76993578576003 A600,600,0,0,0,596.6776961624573,63.05336551098857 L638.4451348938294,67.46710109675777 A642.0,642.0,0,0,1,637.644732961553,74.65383129076324 Z" fill="#B2E779" fill-opacity="0.9" />
<path d="M598.3005285744051,45.12734766843009 A600,600,0,0,0,599.7300202493926,17.997300121494497 L641.7111216668501,19.257111129999114 A642.0,642.0,0,0,1,640.1815655746135,48.2862620052202 Z" fill="#B2E779" fill-opacity="0.9" />
<path d="M594.0,-0.0 A594.0,594.0,0,0,0,593.9849341234269,-4.230606858137791 C237.59397364937078,-1.6922427432551164,231.7583481040175,52.36246827735539,579.3958702600437,130.90617069338848 A594.0,594.0,0,0,0,582.8896621792621,114.34877229137925 C233.15586487170486,45.7395089165517,237.60000000000002,-0.0,594.0,-0.0 Z" fill="url(#d0)" fill-opacity="0.6" />
<path d="M593.5278927214524,-23.677849598982533 A594.0,594.0,0,0,0,592.8783464827286,-36.48652178415568 C237.15133859309145,-14.594608713662272,236.6068559057161,-21.701514657085582,591.5171397642902,-54.25378664271395 A594.0,594.0,0,0,0,591.2156678031341,-57.44592365080559 C236.48626712125366,-22.978369460322238,237.41115708858098,-9.471139839593013,593.5278927214524,-23.677849598982533 Z" fill="url(#d1)" fill-opacity="0.6" />
<path d="M593.5907617805916,-22.045578439608953 A594.0,594.0,0,0,0,593.5278927214524,-23.677849598982533 C237.41115708858098,-9.471139839593013,-64.3434652270297,228.72183647955003,-160.85866306757424,571.8045911988751 A594.0,594.0,0,0,0,-154.55927720375976,573.5393882117002 C-61.82371088150391,229.41575528468007,237.43630471223665,-8.818231375843581,593.5907617805916,-22.045578439608953 Z" fill="url(#d2)" fill-opacity="0.6" />
<path d="M580.7868730629125,-124.58975912090186 A594.0,594.0,0,0,0,580.30400752711,-126.8197888658386 C232.121603010844,-50.727915546335446,227.72250847866223,-67.79542117418858,569.3062711966555,-169.48855293547143 A594.0,594.0,0,0,0,566.6349731519833,-178.21561996932573 C226.65398926079334,-71.28624798773029,232.314749225165,-49.83590364836075,580.7868730629125,-124.58975912090186 Z" fill="url(#d3)" fill-opacity="0.6" />
<path d="M581.5650249966362,-120.90542461222283 A594.0,594.0,0,0,0,580.7868730629125,-124.58975912090186 C232.314749225165,-49.83590364836075,220.4661515976281,-88.59139912955249,551.1653789940702,-221.4784978238812 A594.0,594.0,0,0,0,545.3726004645077,-235.38208653714585 C218.1490401858031,-94.15283461485835,232.6260099986545,-48.36216984488914,581.5650249966362,-120.90542461222283 Z" fill="url(#d4)" fill-opacity="0.6" />
<path d="M581.9023968122549,-119.27112217193675 A594.0,594.0,0,0,0,581.5650249966362,-120.90542461222283 C232.6260099986545,-48.36216984488914,120.80808384482073,-204.59512916426618,302.0202096120518,-511.48782291066544 A594.0,594.0,0,0,0,296.2534406051702,-514.8493944151036 C118.50137624206809,-205.93975776604145,232.76095872490197,-47.7084488687747,581.9023968122549,-119.27112217193675 Z" fill="url(#d5)" fill-opacity="0.6" />
<path d="M582.2684308028195,-117.47116450611259 A594.0,594.0,0,0,0,581.9023968122549,-119.27112217193675 C232.76095872490197,-47.7084488687747,71.86211614728373,-226.47206508272563,179.6552903682093,-566.180162706814 A594.0,594.0,0,0,0,172.63863355686846,-568.3589554178039 C69.05545342274739,-227.34358216712158,232.9073723211278,-46.988465802445035,582.2684308028195,-117.47116450611259 Z" fill="url(#d6)" fill-opacity="0.6" />
<path d="M582.7002717985152,-115.30998762438782 A594.0,594.0,0,0,0,582.2684308028195,-117.47116450611259 C232.9073723211278,-46.988465802445035,28.176606352447745,-235.9233749641167,70.44151588111936,-589.8084374102917 A594.0,594.0,0,0,0,61.680684743556505,-590.7888735661547 C24.672273897422603,-236.3155494264619,233.0801087194061,-46.12399504975513,582.7002717985152,-115.30998762438782 Z" fill="url(#d7)" fill-opacity="0.6" />
<path d="M583.131713497496,-113.10793391037747 A594.0,594.0,0,0,0,582.7002717985152,-115.30998762438782 C233.0801087194061,-46.12399504975513,14.209665811647497,-237.174714920291,35.52416452911874,-592.9367873007275 A594.0,594.0,0,0,0,26.560825448571247,-593.4058666304965 C10.6243301794285,-237.3623466521986,233.2526853989984,-45.24317356415099,583.131713497496,-113.10793391037747 Z" fill="url(#d8)" fill-opacity="0.6" />
<path d="M583.8516685801072,-109.33082409011958 A594.0,594.0,0,0,0,583.131713497496,-113.10793391037747 C233.2526853989984,-45.24317356415099,-88.66173823200722,-220.4378737279033,-221.65434558001803,-551.0946843197582 A594.0,594.0,0,0,0,-235.84797995158513,-545.1712853340285 C-94.33919198063406,-218.06851413361142,233.5406674320429,-43.73232963604784,583.8516685801072,-109.33082409011958 Z" fill="url(#d9)" fill-opacity="0.6" />
<path d="M584.1951259089586,-107.48048596938851 A594.0,594.0,0,0,0,583.8516685801072,-109.33082409011958 C233.5406674320429,-43.73232963604784,-233.10907965592347,45.977352924764375,-582.7726991398087,114.94338231191092 A594.0,594.0,0,0,0,-581.2692594658226,122.3194506203089 C-232.50770378632907,48.92778024812356,233.67805036358345,-42.992194387755404,584.1951259089586,-107.48048596938851 Z" fill="url(#d10)" fill-opacity="0.6" />
<path d="M584.6143771197276,-105.17618582603637 A594.0,594.0,0,0,0,584.1951259089586,-107.48048596938851 C233.67805036358345,-42.992194387755404,-163.97114198709903,171.95122737406274,-409.9278549677475,429.8780684351568 A594.0,594.0,0,0,0,-403.0971464014847,436.2896865191521 C-161.23885856059388,174.51587460766086,233.84575084789105,-42.070474330414555,584.6143771197276,-105.17618582603637 Z" fill="url(#d11)" fill-opacity="0.6" />
<path d="M585.0763175754379,-102.57535090052264 A594.0,594.0,0,0,0,584.6143771197276,-105.17618582603637 C233.84575084789105,-42.070474330414555,-148.01888747041977,185.86061700107211,-370.0472186760494,464.6515425026803 A594.0,594.0,0,0,0,-361.72381524038485,471.16014420570417 C-144.68952609615394,188.4640576822817,234.03052703017516,-41.03014036020906,585.0763175754379,-102.57535090052264 Z" fill="url(#d12)" fill-opacity="0.6" />
<path d="M585.6900833526934,-99.01073811620213 A594.0,594.0,0,0,0,585.0763175754379,-102.57535090052264 C234.03052703017516,-41.03014036020906,-129.80642737970817,199.0076667139147,-324.5160684492704,497.5191667847867 A594.0,594.0,0,0,0,-312.3027380680791,505.2751723518392 C-124.92109522723166,202.1100689407357,234.27603334107735,-39.60429524648086,585.6900833526934,-99.01073811620213 Z" fill="url(#d13)" fill-opacity="0.6" />
<path d="M586.2177279113213,-95.83723432199015 A594.0,594.0,0,0,0,585.6900833526934,-99.01073811620213 C234.27603334107735,-39.60429524648086,-118.80249233650159,205.76619696790695,-297.00623084125397,514.4154924197674 A594.0,594.0,0,0,0,-285.7932190043748,520.7285626611214 C-114.31728760174992,208.29142506444856,234.48709116452852,-38.33489372879606,586.2177279113213,-95.83723432199015 Z" fill="url(#d14)" fill-opacity="0.6" />
<path d="M586.5406152823018,-93.84085796847133 A594.0,594.0,0,0,0,586.2177279113213,-95.83723432199015 C234.48709116452852,-38.33489372879606,-106.16577690682726,212.56196229280954,-265.4144422670681,531.4049057320238 A594.0,594.0,0,0,0,-258.15321394602256,534.9700161030888 C-103.26128557840903,213.98800644123554,234.61624611292075,-37.53634318738853,586.5406152823018,-93.84085796847133 Z" fill="url(#d15)" fill-opacity="0.6" />
<path d="M586.8829003503289,-91.6758489264537 A594.0,594.0,0,0,0,586.5406152823018,-93.84085796847133 C234.61624611292075,-37.53634318738853,-96.79614419432282,216.9890929726927,-241.99036048580703,542.4727324317317 A594.0,594.0,0,0,0,-233.95724480376992,545.9853547521479 C-93.58289792150798,218.39414190085918,234.75316014013157,-36.67033957058148,586.8829003503289,-91.6758489264537 Z" fill="url(#d16)" fill-opacity="0.6" />
<path d="M587.2361854118963,-89.38491227766062 A594.0,594.0,0,0,0,586.8829003503289,-91.6758489264537 C234.75316014013157,-36.67033957058148,-23.821471165895453,236.40282889909,-59.55367791473863,591.007072247725 A594.0,594.0,0,0,0,-50.321443209300774,591.8646402289404 C-20.12857728372031,236.74585609157617,234.89447416475852,-35.75396491106425,587.2361854118963,-89.38491227766062 Z" fill="url(#d17)" fill-opacity="0.6" />
<path d="M587.5265696538739,-87.45587430671324 A594.0,594.0,0,0,0,587.2361854118963,-89.38491227766062 C234.89447416475852,-35.75396491106425,-1.32720764568965,237.59629315261893,-3.318019114224125,593.9907328815473 A594.0,594.0,0,0,0,4.485011603599959,593.9830676634778 C1.794004641439984,237.59322706539112,235.01062786154958,-34.9823497226853,587.5265696538739,-87.45587430671324 Z" fill="url(#d18)" fill-opacity="0.6" />
<path d="M587.8172057472443,-85.48059795943048 A594.0,594.0,0,0,0,587.5265696538739,-87.45587430671324 C235.01062786154958,-34.9823497226853,25.48389538830162,236.2294034954965,63.70973847075405,590.5735087387412 A594.0,594.0,0,0,0,71.64385072869472,589.6635978698062 C28.657540291477886,235.86543914792247,235.12688229889773,-34.192239183772195,587.8172057472443,-85.48059795943048 Z" fill="url(#d19)" fill-opacity="0.6" />
<path d="M588.3382017445037,-81.81784871312378 A594.0,594.0,0,0,0,587.8172057472443,-85.48059795943048 C235.12688229889773,-34.192239183772195,51.34447507636976,231.9860014723562,128.3611876909244,579.9650036808905 A594.0,594.0,0,0,0,142.76869562288198,576.5874604517002 C57.10747824915279,230.63498418068008,235.33528069780152,-32.727139485249516,588.3382017445037,-81.81784871312378 Z" fill="url(#d20)" fill-opacity="0.6" />
<path d="M588.6006138068309,-79.90818122208688 A594.0,594.0,0,0,0,588.3382017445037,-81.81784871312378 C235.33528069780152,-32.727139485249516,67.13293051293068,227.91869085431767,167.8323262823267,569.7967271357942 A594.0,594.0,0,0,0,175.21426070856714,567.5702272356701 C70.08570428342686,227.02809089426808,235.44024552273237,-31.963272488834754,588.6006138068309,-79.90818122208688 Z" fill="url(#d21)" fill-opacity="0.6" />
<path d="M588.8184064980985,-78.28719032536576 A594.0,594.0,0,0,0,588.6006138068309,-79.90818122208688 C235.44024552273237,-31.963272488834754,80.9575039311104,223.3822789686869,202.39375982777597,558.4556974217172 A594.0,594.0,0,0,0,208.5321083892718,556.1927361722059 C83.41284335570873,222.47709446888234,235.5273625992394,-31.314876130146303,588.8184064980985,-78.28719032536576 Z" fill="url(#d22)" fill-opacity="0.6" />
<path d="M589.0769861977391,-76.317130004925 A594.0,594.0,0,0,0,588.8184064980985,-78.28719032536576 C235.5273625992394,-31.314876130146303,108.53450649215354,211.36229772716015,271.33626623038384,528.4057443179004 A594.0,594.0,0,0,0,278.381937947528,524.7280215736326 C111.3527751790112,209.89120862945308,235.63079447909564,-30.526852001970003,589.0769861977391,-76.317130004925 Z" fill="url(#d23)" fill-opacity="0.6" />
<path d="M589.3187196092148,-74.4274594363911 A594.0,594.0,0,0,0,589.0769861977391,-76.317130004925 C235.63079447909564,-30.526852001970003,140.55071422677443,191.57050067884563,351.37678556693606,478.926251697114 A594.0,594.0,0,0,0,357.49173144219674,474.3792385322742 C142.9966925768787,189.7516954129097,235.72748784368594,-29.77098377455644,589.3187196092148,-74.4274594363911 Z" fill="url(#d24)" fill-opacity="0.6" />
<path d="M589.5310014668315,-72.72687474046141 A594.0,594.0,0,0,0,589.3187196092148,-74.4274594363911 C235.72748784368594,-29.77098377455644,148.62404590939457,185.37705623275545,371.5601147734864,463.4426405818886 A594.0,594.0,0,0,0,376.88367291151565,459.1238363369144 C150.75346916460626,183.64953453476576,235.81240058673262,-29.090749896184565,589.5310014668315,-72.72687474046141 Z" fill="url(#d25)" fill-opacity="0.6" />
<path d="M589.8424126578911,-70.1564553688256 A594.0,594.0,0,0,0,589.5310014668315,-72.72687474046141 C235.81240058673262,-29.090749896184565,169.96841596522614,166.02559313031188,424.92103991306533,415.06398282577965 A594.0,594.0,0,0,0,432.0930591424301,407.59242907705783 C172.83722365697204,163.03697163082313,235.93696506315646,-28.062582147530243,589.8424126578911,-70.1564553688256 Z" fill="url(#d26)" fill-opacity="0.6" />
<path d="M590.2771355692963,-66.39957246930639 A594.0,594.0,0,0,0,589.8424126578911,-70.1564553688256 C235.93696506315646,-28.062582147530243,177.64982825497438,157.77927151872046,444.1245706374359,394.44817879680113 A594.0,594.0,0,0,0,454.025160042314,383.0106448240717 C181.6100640169256,153.20425792962868,236.11085422771853,-26.559828987722558,590.2771355692963,-66.39957246930639 Z" fill="url(#d27)" fill-opacity="0.6" />
<path d="M590.4707091153077,-64.65556184015175 A594.0,594.0,0,0,0,590.2771355692963,-66.39957246930639 C236.11085422771853,-26.559828987722558,207.00266695315042,116.63471127534507,517.506667382876,291.58677818836264 A594.0,594.0,0,0,0,520.9159370500935,285.45154847578425 C208.3663748200374,114.18061939031371,236.1882836461231,-25.8622247360607,590.4707091153077,-64.65556184015175 Z" fill="url(#d28)" fill-opacity="0.6" />
<path d="M590.8493692707177,-61.09846833100726 A594.0,594.0,0,0,0,590.4707091153077,-64.65556184015175 C236.1882836461231,-25.8622247360607,214.12781683312798,102.9710544681291,535.3195420828199,257.4276361703227 A594.0,594.0,0,0,0,541.3647740605223,244.45895648635903 C216.54590962420895,97.78358259454362,236.3397477082871,-24.439387332402905,590.8493692707177,-61.09846833100726 Z" fill="url(#d29)" fill-opacity="0.6" />
<path d="M591.0515627457921,-59.11049124949805 A594.0,594.0,0,0,0,590.8493692707177,-61.09846833100726 C236.3397477082871,-24.439387332402905,231.0327920718727,55.476201992159105,577.5819801796818,138.69050498039775 A594.0,594.0,0,0,0,579.3958702600437,130.90617069338848 C231.7583481040175,52.36246827735539,236.42062509831686,-23.64419649979922,591.0515627457921,-59.11049124949805 Z" fill="url(#d30)" fill-opacity="0.6" />
<path d="M591.2156678031341,-57.44592365080559 A594.0,594.0,0,0,0,591.0515627457921,-59.11049124949805 C236.42062509831686,-23.64419649979922,235.98814416147198,27.62889457116097,589.9703604036799,69.07223642790242 A594.0,594.0,0,0,0,590.7109192008327,62.422831855878684 C236.28436768033308,24.969132742351476,236.48626712125366,-22.978369460322238,591.2156678031341,-57.44592365080559 Z" fill="url(#d31)" fill-opacity="0.6" />
<path d="M576.2388673057898,-144.1692332161769 A594.0,594.0,0,0,0,574.1339965120239,-152.33566243375617 C229.6535986048096,-60.93426497350247,12.034417956176311,237.29503320646234,30.086044890440775,593.2375830161558 A594.0,594.0,0,0,0,63.70973847075405,590.5735087387412 C25.48389538830162,236.2294034954965,230.49554692231592,-57.667693286470765,576.2388673057898,-144.1692332161769 Z" fill="url(#d32)" fill-opacity="0.6" />
<path d="M566.6349731519833,-178.21561996932573 A594.0,594.0,0,0,0,557.560731501121,-204.8463587373103 C223.02429260044843,-81.93854349492413,-67.0474456571166,227.94385280339543,-167.61861414279147,569.8596320084886 A594.0,594.0,0,0,0,-160.85866306757424,571.8045911988751 C-64.3434652270297,228.72183647955003,226.65398926079334,-71.28624798773029,566.6349731519833,-178.21561996932573 Z" fill="url(#d33)" fill-opacity="0.6" />
<path d="M545.3726004645077,-235.38208653714585 A594.0,594.0,0,0,0,540.7602291490927,-245.7933574582941 C216.30409165963707,-98.31734298331764,-144.77734636491013,-188.3966028874588,-361.9433659122753,-470.991507218647 A594.0,594.0,0,0,0,-396.96125339474065,-441.8798063990666 C-158.78450135789626,-176.75192255962665,218.1490401858031,-94.15283461485835,545.3726004645077,-235.38208653714585 Z" fill="url(#d34)" fill-opacity="0.6" />
<path d="M533.1442105926734,-261.90313230565806 A594.0,594.0,0,0,0,524.6934724991771,-278.447050472357 C209.87738899967087,-111.3788201889428,-237.56691937109247,-3.9646967764082874,-593.9172984277311,-9.911741941020718 A594.0,594.0,0,0,0,-590.5123700824314,64.27395101928622 C-236.20494803297257,25.709580407714487,213.25768423706938,-104.76125292226322,533.1442105926734,-261.90313230565806 Z" fill="url(#d35)" fill-opacity="0.6" />
<path d="M516.105219585598,-294.0602018575476 A594.0,594.0,0,0,0,464.1398395989301,-370.6888308232114 C185.65593583957207,-148.27553232928457,202.29677129524066,124.61852319587607,505.74192823810165,311.54630798969015 A594.0,594.0,0,0,0,517.506667382876,291.58677818836264 C207.00266695315042,116.63471127534507,206.4420878342392,-117.62408074301905,516.105219585598,-294.0602018575476 Z" fill="url(#d36)" fill-opacity="0.6" />
<path d="M452.81199543533967,-384.4441400123897 A594.0,594.0,0,0,0,425.3636896308878,-414.6103369955913 C170.14547585235513,-165.84413479823652,234.42293205025544,38.72530088922903,586.0573301256386,96.81325222307258 A594.0,594.0,0,0,0,587.6330373706405,86.73761231758307 C235.05321494825623,34.69504492703323,181.1247981741359,-153.7776560049559,452.81199543533967,-384.4441400123897 Z" fill="url(#d37)" fill-opacity="0.6" />
<path d="M386.96304966631067,-450.6612898762754 A594.0,594.0,0,0,0,337.662486101604,-488.69217865613945 C135.06499444064158,-195.4768714624558,112.27078857628743,-209.40159988037,280.67697144071855,-523.503999700925 A594.0,594.0,0,0,0,266.85701517316136,-530.6819513162957 C106.74280606926455,-212.2727805265183,154.78521986652427,-180.26451595051017,386.96304966631067,-450.6612898762754 Z" fill="url(#d38)" fill-opacity="0.6" />
<path d="M412.7358458788397,-427.18277297507996 A594.0,594.0,0,0,0,386.96304966631067,-450.6612898762754 C154.78521986652427,-180.26451595051017,-180.14224706505846,-154.92750182698825,-450.3556176626461,-387.3187545674706 A594.0,594.0,0,0,0,-528.10904386799,-271.9132909308359 C-211.24361754719598,-108.76531637233437,165.0943383515359,-170.87310919003198,412.7358458788397,-427.18277297507996 Z" fill="url(#d39)" fill-opacity="0.6" />
<path d="M322.85198303478705,-498.60063883884624 A594.0,594.0,0,0,0,317.2266438062936,-502.1984233939757 C126.89065752251746,-200.8793693575903,-136.16235807576257,-194.71407818452118,-340.4058951894064,-486.7851954613029 A594.0,594.0,0,0,0,-361.9433659122753,-470.991507218647 C-144.77734636491013,-188.3966028874588,129.14079321391483,-199.4402555355385,322.85198303478705,-498.60063883884624 Z" fill="url(#d40)" fill-opacity="0.6" />
<path d="M212.50363338614383,-554.687484803549 A594.0,594.0,0,0,0,196.55730873584906,-560.5365504429841 C78.62292349433963,-224.21462017719364,-235.56202880675767,-31.053028587309907,-588.9050720168941,-77.63257146827476 A594.0,594.0,0,0,0,-593.9172984277311,-9.911741941020718 C-237.56691937109247,-3.9646967764082874,85.00145335445754,-221.8749939214196,212.50363338614383,-554.687484803549 Z" fill="url(#d41)" fill-opacity="0.6" />
<path d="M225.56015619049293,-549.5076122669461 A594.0,594.0,0,0,0,212.50363338614383,-554.687484803549 C85.00145335445754,-221.8749939214196,-68.39386103840452,227.54348984811546,-170.9846525960113,568.8587246202886 A594.0,594.0,0,0,0,-167.61861414279147,569.8596320084886 C-67.0474456571166,227.94385280339543,90.22406247619718,-219.80304490677847,225.56015619049293,-549.5076122669461 Z" fill="url(#d42)" fill-opacity="0.6" />
<path d="M233.65153825371928,-546.1162501442992 A594.0,594.0,0,0,0,225.56015619049293,-549.5076122669461 C90.22406247619718,-219.80304490677847,118.49943107832594,205.9408770354081,296.24857769581484,514.8521925885202 A594.0,594.0,0,0,0,326.13167489588693,496.46161042884626 C130.4526699583548,198.5846441715385,93.46061530148772,-218.4465000577197,233.65153825371928,-546.1162501442992 Z" fill="url(#d43)" fill-opacity="0.6" />
<path d="M249.74499478596752,-538.9465999330148 A594.0,594.0,0,0,0,233.65153825371928,-546.1162501442992 C93.46061530148772,-218.4465000577197,186.12378396702516,147.68783647205396,465.3094599175629,369.2195911801349 A594.0,594.0,0,0,0,505.74192823810165,311.54630798969015 C202.29677129524066,124.61852319587607,99.89799791438702,-215.57863997320592,249.74499478596752,-538.9465999330148 Z" fill="url(#d44)" fill-opacity="0.6" />
<path d="M266.85701517316136,-530.6819513162957 A594.0,594.0,0,0,0,249.74499478596752,-538.9465999330148 C99.89799791438702,-215.57863997320592,225.81437419967972,73.90283083080804,564.5359354991992,184.75707707702009 A594.0,594.0,0,0,0,565.9956167461529,180.23585055183133 C226.39824669846118,72.09434022073253,106.74280606926455,-212.2727805265183,266.85701517316136,-530.6819513162957 Z" fill="url(#d45)" fill-opacity="0.6" />
<path d="M170.22166003731357,-569.0875033368254 A594.0,594.0,0,0,0,164.04182874301202,-570.8995344389837 C65.61673149720481,-228.35981377559347,-69.0103558048485,227.3572756515353,-172.52588951212124,568.3931891288382 A594.0,594.0,0,0,0,-170.9846525960113,568.8587246202886 C-68.39386103840452,227.54348984811546,68.08866401492543,-227.6350013347302,170.22166003731357,-569.0875033368254 Z" fill="url(#d46)" fill-opacity="0.6" />
<path d="M172.63863355686846,-568.3589554178039 A594.0,594.0,0,0,0,170.22166003731357,-569.0875033368254 C68.08866401492543,-227.6350013347302,156.7066046422388,178.59675266225045,391.766511605597,446.4918816556261 A594.0,594.0,0,0,0,399.2995779106309,439.7679468542382 C159.71983116425235,175.90717874169528,69.05545342274739,-227.34358216712158,172.63863355686846,-568.3589554178039 Z" fill="url(#d47)" fill-opacity="0.6" />
<path d="M135.27539137330515,-578.3913627370305 A594.0,594.0,0,0,0,128.81338835713484,-579.8647350718562 C51.52535534285394,-231.9458940287425,-71.97844218551344,-226.43512064286028,-179.9461054637836,-566.0878016071507 A594.0,594.0,0,0,0,-205.02424789000915,-557.4953432784314 C-82.00969915600366,-222.99813731137257,54.11015654932206,-231.3565450948122,135.27539137330515,-578.3913627370305 Z" fill="url(#d48)" fill-opacity="0.6" />
<path d="M137.54174177019098,-577.856616532875 A594.0,594.0,0,0,0,135.27539137330515,-578.3913627370305 C54.11015654932206,-231.3565450948122,-72.56684727188178,226.24723794340426,-181.41711817970446,565.6180948585106 A594.0,594.0,0,0,0,-172.52588951212124,568.3931891288382 C-69.0103558048485,227.3572756515353,55.016696708076395,-231.14264661315002,137.54174177019098,-577.856616532875 Z" fill="url(#d49)" fill-opacity="0.6" />
<path d="M140.318472406875,-577.1886401354423 A594.0,594.0,0,0,0,137.54174177019098,-577.856616532875 C55.016696708076395,-231.14264661315002,-13.0182097289268,237.2430951902577,-32.545524322317,593.1077379756442 A594.0,594.0,0,0,0,-21.133575266031656,593.6239314553238 C-8.453430106412663,237.44957258212955,56.127388962750004,-230.8754560541769,140.318472406875,-577.1886401354423 Z" fill="url(#d50)" fill-opacity="0.6" />
<path d="M146.84359835545405,-575.5631656230462 A594.0,594.0,0,0,0,140.318472406875,-577.1886401354423 C56.127388962750004,-230.8754560541769,236.9270093154645,17.87042967669832,592.3175232886612,44.67607419174579 A594.0,594.0,0,0,0,593.7327200468986,17.81732712027955 C237.49308801875947,7.1269308481118205,58.737439342181624,-230.2252662492185,146.84359835545405,-575.5631656230462 Z" fill="url(#d51)" fill-opacity="0.6" />
<path d="M111.36209390142758,-583.4676375274721 A594.0,594.0,0,0,0,88.10141868007676,-587.4301150150185 C35.240567472030705,-234.97204600600742,138.64122544865296,192.95691385927532,346.6030636216324,482.39228464818825 A594.0,594.0,0,0,0,351.37678556693606,478.926251697114 C140.55071422677443,191.57050067884563,44.54483756057104,-233.38705501098886,111.36209390142758,-583.4676375274721 Z" fill="url(#d52)" fill-opacity="0.6" />
<path d="M61.680684743556505,-590.7888735661547 A594.0,594.0,0,0,0,53.29361537753134,-591.6044206731317 C21.317446151012536,-236.64176826925268,-73.36879542081974,225.9884507192744,-183.42198855204933,564.971126798186 A594.0,594.0,0,0,0,-181.41711817970446,565.6180948585106 C-72.56684727188178,226.24723794340426,24.672273897422603,-236.3155494264619,61.680684743556505,-590.7888735661547 Z" fill="url(#d53)" fill-opacity="0.6" />
<path d="M26.560825448571247,-593.4058666304965 A594.0,594.0,0,0,0,22.02492222920197,-593.591528579037 C8.809968891680787,-237.4366114316148,229.2291757945864,62.511958572217225,573.072939486466,156.27989643054306 A594.0,594.0,0,0,0,577.5819801796818,138.69050498039775 C231.0327920718727,55.476201992159105,10.6243301794285,-237.3623466521986,26.560825448571247,-593.4058666304965 Z" fill="url(#d54)" fill-opacity="0.6" />
<path d="M-9.178215654918223,-593.9290869770497 A594.0,594.0,0,0,0,-107.59551153190922,-584.1739517456995 C-43.03820461276369,-233.6695806982798,-62.482535659047976,-229.23719754353962,-156.20633914761993,-573.092993858849 A594.0,594.0,0,0,0,-179.9461054637836,-566.0878016071507 C-71.97844218551344,-226.43512064286028,-3.671286261967289,-237.57163479081987,-9.178215654918223,-593.9290869770497 Z" fill="url(#d55)" fill-opacity="0.6" />
<path d="M4.209936941825424,-593.9850809834754 A594.0,594.0,0,0,0,-9.178215654918223,-593.9290869770497 C-3.671286261967289,-237.57163479081987,-74.64104911378358,225.5714383231923,-186.60262278445896,563.9285958079807 A594.0,594.0,0,0,0,-183.42198855204933,564.971126798186 C-73.36879542081974,225.9884507192744,1.6839747767301696,-237.5940323933902,4.209936941825424,-593.9850809834754 Z" fill="url(#d56)" fill-opacity="0.6" />
<path d="M-125.06968707084015,-580.6837119947503 A594.0,594.0,0,0,0,-138.94584055346732,-577.5206086304544 C-55.578336221386934,-231.00824345218177,-204.13384261209757,121.58591324828461,-510.3346065302439,303.9647831207115 A594.0,594.0,0,0,0,-478.90471280101127,351.40614117710135 C-191.56188512040453,140.56245647084054,-50.02787482833606,-232.27348479790012,-125.06968707084015,-580.6837119947503 Z" fill="url(#d57)" fill-opacity="0.6" />
<path d="M-235.84797995158513,-545.1712853340285 A594.0,594.0,0,0,0,-246.13209058123,-540.606135727401 C-98.452836232492,-216.2424542909604,-75.70844377709302,225.2154336204576,-189.27110944273255,563.038584051144 A594.0,594.0,0,0,0,-186.60262278445896,563.9285958079807 C-74.64104911378358,225.5714383231923,-94.33919198063406,-218.06851413361142,-235.84797995158513,-545.1712853340285 Z" fill="url(#d58)" fill-opacity="0.6" />
<path d="M-262.23709090085896,-532.9800260383635 A594.0,594.0,0,0,0,-282.36433233181634,-522.5958130590099 C-112.94573293272654,-209.03832522360395,225.09963751552903,76.0520426443461,562.7490937888225,190.13010661086525 A594.0,594.0,0,0,0,564.5359354991992,184.75707707702009 C225.81437419967972,73.90283083080804,-104.89483636034359,-213.1920104153454,-262.23709090085896,-532.9800260383635 Z" fill="url(#d59)" fill-opacity="0.6" />
<path d="M-297.9128007282122,-513.8910031925764 A594.0,594.0,0,0,0,-325.6513585958942,-496.7768036499373 C-130.26054343835767,-198.71072145997493,63.99979352595448,228.8182388461095,159.9994838148862,572.0455971152737 A594.0,594.0,0,0,0,167.8323262823267,569.7967271357942 C67.13293051293068,227.91869085431767,-119.16512029128488,-205.55640127703055,-297.9128007282122,-513.8910031925764 Z" fill="url(#d60)" fill-opacity="0.6" />
<path d="M-429.5718427798702,-410.24874392337443 A594.0,594.0,0,0,0,-438.53515305268525,-400.6531162203259 C-175.41406122107412,-160.26124648813038,-76.95194090054638,224.79359152706917,-192.37985225136592,561.9839788176729 A594.0,594.0,0,0,0,-189.27110944273255,563.038584051144 C-75.70844377709302,225.2154336204576,-171.8287371119481,-164.09949756934978,-429.5718427798702,-410.24874392337443 Z" fill="url(#d61)" fill-opacity="0.6" />
<path d="M-396.96125339474065,-441.8798063990666 A594.0,594.0,0,0,0,-429.5718427798702,-410.24874392337443 C-171.8287371119481,-164.09949756934978,95.21995432777565,217.6853699673369,238.0498858194391,544.2134249183422 A594.0,594.0,0,0,0,248.41404178528052,539.5613624453672 C99.3656167141122,215.8245449781469,-158.78450135789626,-176.75192255962665,-396.96125339474065,-441.8798063990666 Z" fill="url(#d62)" fill-opacity="0.6" />
<path d="M-528.10904386799,-271.9132909308359 A594.0,594.0,0,0,0,-579.1662820714665,-131.91822357625378 C-231.66651282858663,-52.76728943050151,-233.14505195712172,-45.794592998639104,-582.8626298928043,-114.48648249659774 A594.0,594.0,0,0,0,-588.9050720168941,-77.63257146827476 C-235.56202880675767,-31.053028587309907,-211.24361754719598,-108.76531637233437,-528.10904386799,-271.9132909308359 Z" fill="url(#d63)" fill-opacity="0.6" />
<path d="M-590.5123700824314,64.27395101928622 A594.0,594.0,0,0,0,-589.7370502622491,71.03669156134346 C-235.89482010489965,28.414676624537385,156.19429484158496,179.04497272735705,390.4857371039624,447.6124318183926 A594.0,594.0,0,0,0,391.766511605597,446.4918816556261 C156.7066046422388,178.59675266225045,-236.20494803297257,25.709580407714487,-590.5123700824314,64.27395101928622 Z" fill="url(#d64)" fill-opacity="0.6" />
<path d="M-587.3409073965466,88.69418525811766 A594.0,594.0,0,0,0,-585.9582553405967,97.41110305403639 C-234.38330213623868,38.96444122161456,-77.7864343225564,224.50619286643882,-194.466085806391,561.2654821660971 A594.0,594.0,0,0,0,-192.37985225136592,561.9839788176729 C-76.95194090054638,224.79359152706917,-234.93636295861867,35.47767410324706,-587.3409073965466,88.69418525811766 Z" fill="url(#d65)" fill-opacity="0.6" />
<path d="M-581.2692594658226,122.3194506203089 A594.0,594.0,0,0,0,-578.1435439451868,136.33063703548024 C-231.25741757807475,54.5322548141921,-79.14148813156022,224.03210675330024,-197.85372032890055,560.0802668832506 A594.0,594.0,0,0,0,-194.466085806391,561.2654821660971 C-77.7864343225564,224.50619286643882,-232.50770378632907,48.92778024812356,-581.2692594658226,122.3194506203089 Z" fill="url(#d66)" fill-opacity="0.6" />
<path d="M-573.7940932113667,153.61099763931452 A594.0,594.0,0,0,0,-534.5915916310222,258.93595763703894 C-213.83663665240888,103.57438305481558,-187.25944754558566,146.24520267318877,-468.1486188639641,365.6130066829719 A594.0,594.0,0,0,0,-450.3106551620817,387.37102866308527 C-180.1242620648327,154.94841146523413,-229.51763728454668,61.44439905572581,-573.7940932113667,153.61099763931452 Z" fill="url(#d67)" fill-opacity="0.6" />
<path d="M-526.584129886978,274.85478738994937 A594.0,594.0,0,0,0,-519.2225488942303,288.5202674332925 C-207.68901955769212,115.40810697331699,-80.60341114508064,223.5102908408852,-201.50852786270158,558.775727102213 A594.0,594.0,0,0,0,-197.85372032890055,560.0802668832506 C-79.14148813156022,224.03210675330024,-210.6336519547912,109.94191495597975,-526.584129886978,274.85478738994937 Z" fill="url(#d68)" fill-opacity="0.6" />
<path d="M-450.3106551620817,387.37102866308527 A594.0,594.0,0,0,0,-438.45586713603706,400.73988143680657 C-175.38234685441483,160.29595257472263,-82.28201345563625,222.89780228097027,-205.7050336390906,557.2445057024256 A594.0,594.0,0,0,0,-201.50852786270158,558.775727102213 C-80.60341114508064,223.5102908408852,-180.1242620648327,154.94841146523413,-450.3106551620817,387.37102866308527 Z" fill="url(#d69)" fill-opacity="0.6" />
<path d="M-424.385430618488,415.61160508190886 A594.0,594.0,0,0,0,-422.6378089564572,417.38864675561695 C-169.0551235825829,166.9554587022468,-138.9713470121636,192.71928992611197,-347.428367530409,481.7982248152799 A594.0,594.0,0,0,0,-339.2933834385957,487.56127815361845 C-135.71735337543828,195.0245112614474,-169.75417224739522,166.24464203276355,-424.385430618488,415.61160508190886 Z" fill="url(#d70)" fill-opacity="0.6" />
<path d="M-426.23818359848167,413.7112650661896 A594.0,594.0,0,0,0,-424.385430618488,415.61160508190886 C-169.75417224739522,166.24464203276355,-86.2523814716662,221.39170420425918,-215.6309536791655,553.4792605106479 A594.0,594.0,0,0,0,-205.7050336390906,557.2445057024256 C-82.28201345563625,222.89780228097027,-170.4952734393927,165.48450602647586,-426.23818359848167,413.7112650661896 Z" fill="url(#d71)" fill-opacity="0.6" />
<path d="M-389.82903890939275,448.18447142106476 A594.0,594.0,0,0,0,-383.8181653535933,453.3427135673427 C-153.52726614143734,181.33708542693708,-86.9899472481602,221.10293774113973,-217.47486812040052,552.7573443528493 A594.0,594.0,0,0,0,-215.6309536791655,553.4792605106479 C-86.2523814716662,221.39170420425918,-155.9316155637571,179.2737885684259,-389.82903890939275,448.18447142106476 Z" fill="url(#d72)" fill-opacity="0.6" />
<path d="M-285.7932190043748,520.7285626611214 A594.0,594.0,0,0,0,-281.2347706830089,523.2045525020549 C-112.49390827320356,209.28182100082196,222.30614858837004,83.8673732735534,555.7653714709251,209.66843318388348 A594.0,594.0,0,0,0,562.7490937888225,190.13010661086525 C225.09963751552903,76.0520426443461,-114.31728760174992,208.29142506444856,-285.7932190043748,520.7285626611214 Z" fill="url(#d73)" fill-opacity="0.6" />
<path d="M-117.92074475671242,582.1775484815798 A594.0,594.0,0,0,0,-115.13579084593134,582.7347163729667 C-46.05431633837254,233.09388654918666,-39.04182572912013,234.37042442197568,-97.60456432280031,585.9260610549392 A594.0,594.0,0,0,0,-86.3812380892132,587.6855296042048 C-34.55249523568528,235.07421184168194,-47.16829790268497,232.87101939263195,-117.92074475671242,582.1775484815798 Z" fill="url(#d74)" fill-opacity="0.6" />
<path d="M-120.17768504227071,581.7158447368275 A594.0,594.0,0,0,0,-117.92074475671242,582.1775484815798 C-47.16829790268497,232.87101939263195,-27.48577921004221,236.00485575770855,-68.71444802510553,590.0121393942713 A594.0,594.0,0,0,0,-59.55367791473863,591.007072247725 C-23.821471165895453,236.40282889909,-48.071074016908284,232.68633789473103,-120.17768504227071,581.7158447368275 Z" fill="url(#d75)" fill-opacity="0.6" />
<path d="M-122.08520733654565,581.3185031887361 A594.0,594.0,0,0,0,-120.17768504227071,581.7158447368275 C-48.071074016908284,232.68633789473103,8.919925090448771,237.43250606515696,22.299812726121928,593.5812651628924 A594.0,594.0,0,0,0,30.086044890440775,593.2375830161558 C12.034417956176311,237.29503320646234,-48.834082934618266,232.52740127549447,-122.08520733654565,581.3185031887361 Z" fill="url(#d76)" fill-opacity="0.6" />
<path d="M-124.91970056836529,580.7159963440906 A594.0,594.0,0,0,0,-122.08520733654565,581.3185031887361 C-48.834082934618266,232.52740127549447,35.71954719323299,234.8997104049096,89.29886798308247,587.249276012274 A594.0,594.0,0,0,0,100.74070095638433,585.395004395166 C40.29628038255373,234.1580017580664,-49.967880227346114,232.28639853763627,-124.91970056836529,580.7159963440906 Z" fill="url(#d77)" fill-opacity="0.6" />
<path d="M-127.44370038629516,580.1673062417842 A594.0,594.0,0,0,0,-124.91970056836529,580.7159963440906 C-49.967880227346114,232.28639853763627,47.301834805490365,232.84393147349599,118.25458701372591,582.1098286837399 A594.0,594.0,0,0,0,128.3611876909244,579.9650036808905 C51.34447507636976,231.9860014723562,-50.97748015451807,232.0669224967137,-127.44370038629516,580.1673062417842 Z" fill="url(#d78)" fill-opacity="0.6" />
<path d="M-130.09165493157252,579.579296832767 A594.0,594.0,0,0,0,-127.44370038629516,580.1673062417842 C-50.97748015451807,232.0669224967137,76.86398922821216,224.82368015830826,192.15997307053038,562.0592003957706 A594.0,594.0,0,0,0,202.39375982777597,558.4556974217172 C80.9575039311104,223.3822789686869,-52.03666197262901,231.8317187331068,-130.09165493157252,579.579296832767 Z" fill="url(#d79)" fill-opacity="0.6" />
<path d="M-133.5141000750017,578.8004708715798 A594.0,594.0,0,0,0,-130.09165493157252,579.579296832767 C-52.03666197262901,231.8317187331068,90.04862212348972,219.87497732498116,225.12155530872428,549.6874433124528 A594.0,594.0,0,0,0,238.0498858194391,544.2134249183422 C95.21995432777565,217.6853699673369,-53.40564003000068,231.52018834863193,-133.5141000750017,578.8004708715798 Z" fill="url(#d80)" fill-opacity="0.6" />
<path d="M-135.38296145180885,578.3661934696202 A594.0,594.0,0,0,0,-133.5141000750017,578.8004708715798 C-53.40564003000068,231.52018834863193,105.79467072267542,212.74690984049732,264.48667680668854,531.8672746012433 A594.0,594.0,0,0,0,271.33626623038384,528.4057443179004 C108.53450649215354,211.36229772716015,-54.15318458072355,231.34647738784807,-135.38296145180885,578.3661934696202 Z" fill="url(#d81)" fill-opacity="0.6" />
<path d="M-145.4702532162753,575.9118035161224 A594.0,594.0,0,0,0,-135.38296145180885,578.3661934696202 C-54.15318458072355,231.34647738784807,117.59846197917093,206.45668247875506,293.9961549479273,516.1417061968876 A594.0,594.0,0,0,0,296.24857769581484,514.8521925885202 C118.49943107832594,205.9408770354081,-58.18810128651012,230.36472140644898,-145.4702532162753,575.9118035161224 Z" fill="url(#d82)" fill-opacity="0.6" />
<path d="M-147.17160254071962,575.4793822593442 A594.0,594.0,0,0,0,-145.4702532162753,575.9118035161224 C-58.18810128651012,230.36472140644898,136.350616393979,194.58229469554004,340.8765409849475,486.4557367388501 A594.0,594.0,0,0,0,346.6030636216324,482.39228464818825 C138.64122544865296,192.95691385927532,-58.86864101628785,230.1917529037377,-147.17160254071962,575.4793822593442 Z" fill="url(#d83)" fill-opacity="0.6" />
<path d="M-149.51950956770605,574.8738263816093 A594.0,594.0,0,0,0,-147.17160254071962,575.4793822593442 C-58.86864101628785,230.1917529037377,167.23497536366565,168.77862132128627,418.0874384091641,421.94655330321564 A594.0,594.0,0,0,0,424.92103991306533,415.06398282577965 C169.96841596522614,166.02559313031188,-59.807803827082424,229.94953055264375,-149.51950956770605,574.8738263816093 Z" fill="url(#d84)" fill-opacity="0.6" />
<path d="M-152.82990753955508,574.002630099768 A594.0,594.0,0,0,0,-149.51950956770605,574.8738263816093 C-59.807803827082424,229.94953055264375,211.69752177556586,107.8791883269606,529.2438044389146,269.6979708174015 A594.0,594.0,0,0,0,535.3195420828199,257.4276361703227 C214.12781683312798,102.9710544681291,-61.13196301582204,229.60105203990722,-152.82990753955508,574.002630099768 Z" fill="url(#d85)" fill-opacity="0.6" />
<path d="M-154.55927720375976,573.5393882117002 A594.0,594.0,0,0,0,-152.82990753955508,574.002630099768 C-61.13196301582204,229.60105203990722,228.45888092484824,65.27097154605578,571.1472023121206,163.17742886513943 A594.0,594.0,0,0,0,573.072939486466,156.27989643054306 C229.2291757945864,62.511958572217225,-61.82371088150391,229.41575528468007,-154.55927720375976,573.5393882117002 Z" fill="url(#d86)" fill-opacity="0.6" />
<path d="M399.2995779106309,439.7679468542382 A594.0,594.0,0,0,0,405.24281524685864,434.2974334379612 C162.09712609874347,173.7189733751845,219.38153874459869,91.24418040649036,548.4538468614967,228.11045101622588 A594.0,594.0,0,0,0,549.2261862802576,226.2445497775444 C219.69047451210304,90.49781991101776,159.71983116425235,175.90717874169528,399.2995779106309,439.7679468542382 Z" fill="url(#d87)" fill-opacity="0.6" />
<text x="660.0" y="0" font-size="20" text-anchor="start" dominant-baseline="middle" transform="rotate(-0.204039)" font-family="Arial">ICD9 011</text>
<text x="660.0" y="0" font-size="20" text-anchor="start" dominant-baseline="middle" transform="rotate(-2.824284)" font-family="Arial">ICD9 038</text>
<text x="660.0" y="0" font-size="20" text-anchor="start" dominant-baseline="middle" transform="rotate(-8.784054)" font-family="Arial">ICD9 079</text>
<text x="660.0" y="0" font-size="20" text-anchor="start" dominant-baseline="middle" transform="rotate(-14.453224)" font-family="Arial">ICD9 154</text>
<text x="660.0" y="0" font-size="20" text-anchor="start" dominant-baseline="middle" transform="rotate(-18.376015)" font-family="Arial">ICD9 162</text>
<text x="660.0" y="0" font-size="20" text-anchor="start" dominant-baseline="middle" transform="rotate(-23.167718)" font-family="Arial">ICD9 197</text>
<text x="660.0000000000002" y="0" font-size="20" text-anchor="start" dominant-baseline="middle" transform="rotate(-27.058233)" font-family="Arial">ICD9 198</text>
<text x="660.0" y="0" font-size="20" text-anchor="start" dominant-baseline="middle" transform="rotate(-34.142992)" font-family="Arial">ICD9 218</text>
<text x="660.0" y="0" font-size="20" text-anchor="start" dominant-baseline="middle" transform="rotate(-42.299146)" font-family="Arial">ICD9 241</text>
<text x="660.0" y="0" font-size="20" text-anchor="start" dominant-baseline="middle" transform="rotate(-50.671414)" font-family="Arial">ICD9 250</text>
<text x="660.0" y="0" font-size="20" text-anchor="start" dominant-baseline="middle" transform="rotate(-57.398337)" font-family="Arial">ICD9 251</text>
<text x="660.0" y="0" font-size="20" text-anchor="start" dominant-baseline="middle" transform="rotate(-59.761187)" font-family="Arial">ICD9 266</text>
<text x="660.0" y="0" font-size="20" text-anchor="start" dominant-baseline="middle" transform="rotate(-66.239151)" font-family="Arial">ICD9 272</text>
<text x="660.0" y="0" font-size="20" text-anchor="start" dominant-baseline="middle" transform="rotate(-73.181876)" font-family="Arial">ICD9 274</text>
<text x="660.0" y="0" font-size="20" text-anchor="start" dominant-baseline="middle" transform="rotate(-76.581455)" font-family="Arial">ICD9 276</text>
<text x="660.0" y="0" font-size="20" text-anchor="start" dominant-baseline="middle" transform="rotate(-80.332414)" font-family="Arial">ICD9 278</text>
<text x="660.0" y="0" font-size="20" text-anchor="start" dominant-baseline="middle" transform="rotate(-84.020932)" font-family="Arial">ICD9 280</text>
<text x="660.0" y="0" font-size="20" text-anchor="start" dominant-baseline="middle" transform="rotate(-87.223212)" font-family="Arial">ICD9 281</text>
<text x="-660.0" y="0" font-size="20" text-anchor="end" dominant-baseline="middle" transform="rotate(84.985038)" font-family="Arial">ICD9 285</text>
<text x="-660.0" y="0" font-size="20" text-anchor="end" dominant-baseline="middle" transform="rotate(77.158706)" font-family="Arial">ICD9 294</text>
<text x="-660.0" y="0" font-size="20" text-anchor="end" dominant-baseline="middle" transform="rotate(72.280969)" font-family="Arial">ICD9 311</text>
<text x="-660.0" y="0" font-size="20" text-anchor="end" dominant-baseline="middle" transform="rotate(66.805194)" font-family="Arial">ICD9 332</text>
<text x="-660.0" y="0" font-size="20" text-anchor="end" dominant-baseline="middle" transform="rotate(62.709511)" font-family="Arial">ICD9 351</text>
<text x="-660.0" y="0" font-size="20" text-anchor="end" dominant-baseline="middle" transform="rotate(58.326148)" font-family="Arial">ICD9 362</text>
<text x="-660.0" y="0" font-size="20" text-anchor="end" dominant-baseline="middle" transform="rotate(48.725246)" font-family="Arial">ICD9 366</text>
<text x="-660.0" y="0" font-size="20" text-anchor="end" dominant-baseline="middle" transform="rotate(26.763987)" font-family="Arial">ICD9 379</text>
<text x="-660.0" y="0" font-size="20" text-anchor="end" dominant-baseline="middle" transform="rotate(2.122081)" font-family="Arial">ICD9 401</text>
<text x="-660.0" y="0" font-size="20" text-anchor="end" dominant-baseline="middle" transform="rotate(-9.013003)" font-family="Arial">ICD9 403</text>
<text x="-660.0" y="0" font-size="20" text-anchor="end" dominant-baseline="middle" transform="rotate(-12.212968)" font-family="Arial">ICD9 410</text>
<text x="-660.0" y="0" font-size="20" text-anchor="end" dominant-baseline="middle" transform="rotate(-20.415530)" font-family="Arial">ICD9 412</text>
<text x="-660.0" y="0" font-size="20" text-anchor="end" dominant-baseline="middle" transform="rotate(-28.311304)" font-family="Arial">ICD9 414</text>
<text x="-660.0" y="0" font-size="20" text-anchor="end" dominant-baseline="middle" transform="rotate(-33.524468)" font-family="Arial">ICD9 426</text>
<text x="-660.0" y="0" font-size="20" text-anchor="end" dominant-baseline="middle" transform="rotate(-40.207841)" font-family="Arial">ICD9 427</text>
<text x="-660.0" y="0" font-size="20" text-anchor="end" dominant-baseline="middle" transform="rotate(-44.393767)" font-family="Arial">ICD9 428</text>
<text x="-660.0" y="0" font-size="20" text-anchor="end" dominant-baseline="middle" transform="rotate(-46.812680)" font-family="Arial">ICD9 437</text>
<text x="-660.0" y="0" font-size="20" text-anchor="end" dominant-baseline="middle" transform="rotate(-49.365396)" font-family="Arial">ICD9 458</text>
<text x="-660.0" y="0" font-size="20" text-anchor="end" dominant-baseline="middle" transform="rotate(-51.975873)" font-family="Arial">ICD9 482</text>
<text x="-660.0" y="0" font-size="20" text-anchor="end" dominant-baseline="middle" transform="rotate(-54.685162)" font-family="Arial">ICD9 490</text>
<text x="-660.0" y="0" font-size="20" text-anchor="end" dominant-baseline="middle" transform="rotate(-57.582645)" font-family="Arial">ICD9 493</text>
<text x="-660.0" y="0" font-size="20" text-anchor="end" dominant-baseline="middle" transform="rotate(-60.870115)" font-family="Arial">ICD9 496</text>
<text x="-660.0" y="0" font-size="20" text-anchor="end" dominant-baseline="middle" transform="rotate(-63.849933)" font-family="Arial">ICD9 511</text>
<text x="-660.0" y="0" font-size="20" text-anchor="end" dominant-baseline="middle" transform="rotate(-66.381793)" font-family="Arial">ICD9 518</text>
<text x="-660.0" y="0" font-size="20" text-anchor="end" dominant-baseline="middle" transform="rotate(-73.673529)" font-family="Arial">ICD9 519</text>
<text x="-660.0" y="0" font-size="20" text-anchor="end" dominant-baseline="middle" transform="rotate(-81.090321)" font-family="Arial">ICD9 530</text>
<text x="-660.0" y="0" font-size="20" text-anchor="end" dominant-baseline="middle" transform="rotate(-84.248697)" font-family="Arial">ICD9 531</text>
<text x="-660.0" y="0" font-size="20" text-anchor="end" dominant-baseline="middle" transform="rotate(-87.410121)" font-family="Arial">ICD9 550</text>
<text x="660.0" y="0" font-size="20" text-anchor="start" dominant-baseline="middle" transform="rotate(-270.056284)" font-family="Arial">ICD9 564</text>
<text x="660.0" y="0" font-size="20" text-anchor="start" dominant-baseline="middle" transform="rotate(-274.539473)" font-family="Arial">ICD9 569</text>
<text x="660.0" y="0" font-size="20" text-anchor="start" dominant-baseline="middle" transform="rotate(-279.205363)" font-family="Arial">ICD9 571</text>
<text x="660.0" y="0" font-size="20" text-anchor="start" dominant-baseline="middle" transform="rotate(-282.695274)" font-family="Arial">ICD9 573</text>
<text x="660.0" y="0" font-size="20" text-anchor="start" dominant-baseline="middle" transform="rotate(-286.391050)" font-family="Arial">ICD9 578</text>
<text x="660.0" y="0" font-size="20" text-anchor="start" dominant-baseline="middle" transform="rotate(-289.713620)" font-family="Arial">ICD9 584</text>
<text x="660.0" y="0" font-size="20" text-anchor="start" dominant-baseline="middle" transform="rotate(-293.496317)" font-family="Arial">ICD9 585</text>
<text x="660.0" y="0" font-size="20" text-anchor="start" dominant-baseline="middle" transform="rotate(-297.193668)" font-family="Arial">ICD9 593</text>
<text x="660.0" y="0" font-size="20" text-anchor="start" dominant-baseline="middle" transform="rotate(-301.483696)" font-family="Arial">ICD9 599</text>
<text x="660.0" y="0" font-size="20" text-anchor="start" dominant-baseline="middle" transform="rotate(-306.010958)" font-family="Arial">ICD9 600</text>
<text x="660.0" y="0" font-size="20" text-anchor="start" dominant-baseline="middle" transform="rotate(-309.051132)" font-family="Arial">ICD9 692</text>
<text x="660.0" y="0" font-size="20" text-anchor="start" dominant-baseline="middle" transform="rotate(-312.059266)" font-family="Arial">ICD9 719</text>
<text x="660.0" y="0" font-size="20" text-anchor="start" dominant-baseline="middle" transform="rotate(-315.704053)" font-family="Arial">ICD9 724</text>
<text x="660.0" y="0" font-size="20" text-anchor="start" dominant-baseline="middle" transform="rotate(-319.119792)" font-family="Arial">ICD9 733</text>
<text x="660.0" y="0" font-size="20" text-anchor="start" dominant-baseline="middle" transform="rotate(-326.423199)" font-family="Arial">ICD9 780</text>
<text x="660.0" y="0" font-size="20" text-anchor="start" dominant-baseline="middle" transform="rotate(-334.347477)" font-family="Arial">ICD9 783</text>
<text x="660.0" y="0" font-size="20" text-anchor="start" dominant-baseline="middle" transform="rotate(-337.514212)" font-family="Arial">ICD9 785</text>
<text x="659.9999999999999" y="0" font-size="20" text-anchor="start" dominant-baseline="middle" transform="rotate(-340.833452)" font-family="Arial">ICD9 786</text>
<text x="660.0" y="0" font-size="20" text-anchor="start" dominant-baseline="middle" transform="rotate(-346.478105)" font-family="Arial">ICD9 788</text>
<text x="659.9999999999999" y="0" font-size="20" text-anchor="start" dominant-baseline="middle" transform="rotate(-351.111633)" font-family="Arial">ICD9 789</text>
<text x="660.0" y="0" font-size="20" text-anchor="start" dominant-baseline="middle" transform="rotate(-353.645032)" font-family="Arial">ICD9 790</text>
<text x="660.0" y="0" font-size="20" text-anchor="start" dominant-baseline="middle" transform="rotate(-356.983855)" font-family="Arial">ICD9 791</text>
</svg>